<svg width="191" height="35" viewBox="0 0 191 35" fill="none" xmlns="http://www.w3.org/2000/svg">
<path d="M185.082 22.3912C185.596 22.4216 186.111 22.3548 186.602 22.1941C186.746 22.1285 186.867 22.018 186.947 21.8781C187.028 21.7383 187.063 21.5761 187.048 21.4145C187.048 21.1088 186.856 20.8475 186.472 20.6304C185.909 20.3242 185.321 20.068 184.716 19.8646C184.102 19.6506 183.548 19.4259 183.053 19.1906C182.59 18.9806 182.162 18.6974 181.784 18.3514C181.435 18.0295 181.157 17.6337 180.971 17.1913C180.766 16.6748 180.667 16.1207 180.68 15.5634C180.663 14.9908 180.787 14.423 181.039 13.9119C181.291 13.4008 181.664 12.9627 182.124 12.6378C183.086 11.9164 184.404 11.5572 186.079 11.5603C186.886 11.5592 187.692 11.6298 188.487 11.7712C189.109 11.8751 189.721 12.0284 190.32 12.2297L189.631 15.137C189.146 14.9762 188.652 14.843 188.152 14.738C187.564 14.6149 186.965 14.5565 186.365 14.5638C185.143 14.5638 184.533 14.8878 184.533 15.5359C184.531 15.6743 184.557 15.8116 184.609 15.9394C184.683 16.078 184.793 16.1936 184.926 16.2742C185.13 16.4087 185.343 16.5268 185.565 16.6272C185.837 16.7556 186.182 16.8932 186.602 17.0445C187.333 17.2917 188.047 17.5905 188.738 17.9387C189.231 18.1801 189.683 18.5005 190.078 18.8879C190.374 19.2091 190.596 19.5947 190.726 20.0159C190.864 20.4841 190.93 20.9714 190.923 21.4604C190.949 22.0477 190.82 22.6313 190.55 23.1501C190.28 23.6688 189.88 24.1036 189.39 24.4089C188.368 25.0753 186.923 25.407 185.055 25.4039C184.03 25.4256 183.006 25.3256 182.003 25.1059C181.43 24.9749 180.866 24.8065 180.314 24.6015L180.971 21.575C181.636 21.8241 182.319 22.0203 183.013 22.162C183.694 22.3016 184.387 22.3722 185.082 22.3729V22.3912ZM169.643 17.5123C169.294 18.7824 168.923 20.0389 168.53 21.2907C168.137 22.5426 167.734 23.8036 167.288 25.06H164.249C163.936 24.3569 163.595 23.5223 163.225 22.5563C162.859 21.5888 162.475 20.5341 162.086 19.3923C161.697 18.2505 161.286 17.0445 160.875 15.7652C160.464 14.4858 160.062 13.2019 159.682 11.8996H163.788C163.931 12.5003 164.083 13.156 164.235 13.8668C164.387 14.5775 164.575 15.302 164.758 16.0541C164.941 16.8061 165.138 17.5581 165.339 18.3193C165.54 19.0805 165.75 19.805 165.96 20.5066C166.188 19.7729 166.407 19.0209 166.626 18.2551C166.845 17.4893 167.073 16.7327 167.256 15.9899C167.439 15.247 167.65 14.5317 167.833 13.8393C168.016 13.1468 168.177 12.5003 168.315 11.8996H171.144C171.281 12.511 171.438 13.1575 171.613 13.8393L172.203 15.999C172.391 16.7419 172.59 17.497 172.802 18.2643C173.014 19.0316 173.233 19.7821 173.459 20.5158C173.669 19.8142 173.906 19.0851 174.089 18.3285C174.272 17.5719 174.496 16.8153 174.683 16.0632C174.871 15.3112 175.041 14.5821 175.206 13.8759C175.372 13.1698 175.532 12.5003 175.653 11.9088H179.711C179.326 13.211 178.924 14.4996 178.518 15.7743C178.111 17.0491 177.704 18.2597 177.307 19.4015C176.909 20.5433 176.529 21.5979 176.154 22.5655C175.778 23.533 175.43 24.3676 175.117 25.0692H172.078C171.631 23.8036 171.216 22.5426 170.796 21.2907C170.375 20.0389 169.991 18.7824 169.643 17.5123ZM155.222 18.466C155.275 17.5051 155.022 16.5526 154.502 15.7514C154.265 15.4262 153.953 15.1658 153.595 14.9931C153.237 14.8204 152.842 14.7407 152.447 14.7609C152.049 14.7408 151.653 14.8205 151.293 14.9931C150.932 15.1657 150.618 15.426 150.378 15.7514C149.847 16.5482 149.59 17.5029 149.645 18.466C149.59 19.4406 149.847 20.4069 150.378 21.2173C150.615 21.5479 150.928 21.8133 151.288 21.99C151.649 22.1668 152.047 22.2495 152.447 22.2307C152.844 22.2501 153.241 22.1675 153.599 21.9906C153.958 21.8137 154.269 21.548 154.502 21.2173C155.021 20.4019 155.273 19.4383 155.222 18.466ZM159.204 18.466C159.213 19.4337 159.053 20.3952 158.73 21.3045C158.436 22.1305 157.971 22.8814 157.367 23.5055C156.757 24.1268 156.026 24.6082 155.222 24.9179C154.331 25.2623 153.385 25.4318 152.433 25.4177C151.49 25.4315 150.553 25.2619 149.672 24.9179C148.871 24.6065 148.143 24.1253 147.536 23.5055C146.931 22.8769 146.458 22.1278 146.146 21.3045C145.807 20.3991 145.639 19.4359 145.65 18.466C145.638 17.4978 145.811 16.5366 146.159 15.6368C146.481 14.8202 146.963 14.0804 147.576 13.4632C148.193 12.8536 148.922 12.3766 149.721 12.0601C151.479 11.3938 153.41 11.3938 155.168 12.0601C155.966 12.3732 156.693 12.8508 157.304 13.4632C157.907 14.0819 158.379 14.822 158.69 15.6368C159.037 16.5372 159.213 17.4976 159.208 18.466H159.204ZM131.537 12.3627C132.383 12.1408 133.241 11.9694 134.107 11.8491C135.199 11.686 136.301 11.6063 137.405 11.6107C138.395 11.5833 139.382 11.7306 140.323 12.0463C141.03 12.2918 141.666 12.7179 142.169 13.2844C142.637 13.8317 142.975 14.4832 143.156 15.1874C143.357 15.9885 143.455 16.8134 143.447 17.6406V25.06H139.536V18.09C139.536 16.8886 139.371 16.0403 139.04 15.5359C138.71 15.0315 138.089 14.7885 137.181 14.7885C136.904 14.7885 136.605 14.7885 136.288 14.8251C135.97 14.8618 135.693 14.8802 135.448 14.9123V25.06H131.537V12.3627ZM125.254 25.06C124.888 24.4945 124.454 23.8831 123.954 23.2258C123.453 22.5685 122.916 21.9082 122.341 21.2449C121.763 20.5754 121.159 19.938 120.531 19.3327C119.935 18.7549 119.304 18.2173 118.64 17.7232V25.06H114.556V7.73134H118.64V14.2474C119.692 13.1927 120.759 12.0906 121.84 10.9412C122.922 9.79177 123.923 8.72182 124.843 7.73134H129.692C128.455 9.14063 127.213 10.4918 125.965 11.7849C124.716 13.0781 123.401 14.3834 122.019 15.701C123.546 16.934 124.953 18.3161 126.219 19.8279C127.623 21.4863 128.923 23.2337 130.112 25.06H125.254ZM107.956 18.4569C108.008 17.496 107.756 16.5434 107.236 15.7422C106.999 15.417 106.687 15.1566 106.329 14.9839C105.97 14.8112 105.576 14.7315 105.181 14.7518C104.783 14.7312 104.387 14.8107 104.026 14.9834C103.665 15.156 103.351 15.4165 103.111 15.7422C102.581 16.539 102.323 17.4937 102.379 18.4569C102.324 19.4315 102.581 20.3978 103.111 21.2082C103.348 21.5371 103.659 21.8013 104.018 21.9772C104.378 22.1532 104.774 22.2355 105.172 22.217C105.569 22.2363 105.965 22.1538 106.324 21.9769C106.683 21.8 106.993 21.5342 107.227 21.2036C107.746 20.3931 108.001 19.4346 107.956 18.466V18.4569ZM111.933 18.4569C111.951 19.4229 111.8 20.3843 111.486 21.2953C111.192 22.1214 110.727 22.8723 110.123 23.4964C109.517 24.116 108.791 24.5973 107.991 24.9087C107.091 25.2602 106.134 25.4329 105.172 25.4177C104.228 25.4315 103.291 25.2619 102.41 24.9179C101.609 24.6065 100.881 24.1253 100.274 23.5055C99.6689 22.8769 99.196 22.1278 98.884 21.3045C98.5451 20.3991 98.3767 19.4359 98.388 18.466C98.3815 17.4966 98.5606 16.5353 98.9153 15.6368C99.2372 14.8202 99.7194 14.0804 100.332 13.4632C100.949 12.8536 101.678 12.3766 102.477 12.0601C104.235 11.3938 106.167 11.3938 107.924 12.0601C108.722 12.3732 109.449 12.8508 110.06 13.4632C110.663 14.0819 111.135 14.822 111.446 15.6368C111.782 16.5394 111.948 17.4997 111.933 18.466V18.4569ZM84.28 25.06V6.25939L88.1902 5.65869V11.9592C88.522 11.8605 88.8592 11.7824 89.2002 11.7253C89.5936 11.6498 89.993 11.6114 90.3933 11.6107C91.3407 11.5836 92.2852 11.7311 93.1818 12.0463C93.8693 12.299 94.4839 12.7247 94.9693 13.2844C95.423 13.8353 95.7457 14.4867 95.9123 15.1874C96.1043 15.99 96.1974 16.8142 96.1893 17.6406V25.06H92.2836V18.09C92.2836 16.8886 92.1227 16.0403 91.801 15.5359C91.4792 15.0315 90.8715 14.7885 89.9777 14.7885C89.6481 14.7857 89.3189 14.8148 88.9946 14.8756C88.6862 14.9352 88.4136 14.9948 88.1679 15.0636V25.06H84.28ZM72.5495 9.58389C72.7551 10.2656 72.9859 11.0375 73.2422 11.8996C73.4924 12.7571 73.765 13.6467 74.051 14.5638C74.337 15.4809 74.6275 16.398 74.9448 17.3151C75.262 18.2322 75.5302 19.0805 75.8072 19.8646C76.0351 19.0163 76.2541 18.09 76.5044 17.0904C76.7546 16.0907 76.9512 15.0544 77.1747 13.986C77.3981 12.9176 77.5947 11.8583 77.7914 10.7761C77.988 9.69395 78.1846 8.6943 78.3589 7.70842H82.6042C81.9876 10.6095 81.28 13.5534 80.4816 16.5401C79.6832 19.5268 78.8266 22.3668 77.912 25.06H74.1761C73.5624 23.4581 72.9666 21.7768 72.3886 20.0159C71.8107 18.2551 71.2446 16.4912 70.6905 14.7243L69.0013 20.0159C68.4382 21.7707 67.8513 23.452 67.2406 25.06H63.5092C62.5797 22.3729 61.7157 19.5375 60.9173 16.5539C60.1189 13.5702 59.4128 10.6263 58.7991 7.72217H63.2276C63.4034 8.70653 63.5956 9.7291 63.8041 10.7899C64.0141 11.8491 64.251 12.9084 64.461 13.9997C64.671 15.0911 64.9079 16.0999 65.1581 17.1041C65.4084 18.1084 65.6408 19.0301 65.8821 19.8784C66.1979 19.0622 66.4958 18.1955 66.7758 17.2784C67.0797 16.3613 67.3657 15.4442 67.6696 14.5271C67.9735 13.61 68.2058 12.725 68.4427 11.8721C68.6795 11.0192 68.8896 10.2671 69.0817 9.57931L72.5495 9.58389Z" fill="white"/>
<path fill-rule="evenodd" clip-rule="evenodd" d="M22.8923 13.1103C22.4162 13.5172 21.836 13.7751 21.221 13.8531C20.5548 13.8871 19.8986 13.6757 19.3709 13.257C18.7051 12.7985 17.9275 12.1015 16.998 11.4687C15.9734 10.7508 14.8208 10.2475 13.6062 9.98755C12.0727 9.6772 10.4921 9.71004 8.97209 10.0838C7.38219 10.4898 5.92044 11.3076 4.72675 12.4591C3.55359 13.624 2.66546 15.057 2.13486 16.6411C1.59509 18.2157 1.44161 19.9024 1.68798 21.5522C1.95774 23.2549 2.51743 24.8955 3.34143 26.3991C3.94122 27.5076 4.74034 28.4895 5.69648 29.2926C6.5312 30.0248 7.46813 30.6245 8.47605 31.0718C9.41725 31.4717 10.4036 31.749 11.412 31.8972C11.9159 32.0263 12.4474 31.9795 12.9225 31.7642C13.0917 31.6767 13.2409 31.5534 13.3603 31.4025C13.4797 31.2515 13.5666 31.0763 13.6151 30.8883C13.7038 30.4735 13.6368 30.0396 13.4275 29.6732C13.3131 29.506 13.1648 29.3661 12.9928 29.2632C12.8207 29.1603 12.6291 29.0968 12.4309 29.0771C11.8028 28.9939 11.1794 28.8776 10.563 28.7286C9.71869 28.483 8.91988 28.0956 8.19899 27.5822C7.34759 26.976 6.62788 26.1953 6.08526 25.2894C5.46881 24.2403 5.03059 23.0913 4.78931 21.8916C4.5441 20.7704 4.52282 19.6098 4.72675 18.4799C4.93837 17.4684 5.36064 16.5158 5.9646 15.6874C6.54056 14.845 7.30735 14.1589 8.19899 13.6881C9.17062 13.2107 10.2246 12.9348 11.3003 12.8764C12.2041 12.8163 13.1101 12.9523 13.9592 13.2754L14.2274 13.3808H14.2721C14.5804 13.5046 18.4101 16.0267 19.5765 16.5494C20.7428 17.0722 17.9633 14.4172 18.9509 14.4538C19.8569 14.5134 20.764 14.3565 21.6008 13.9953H21.6232H21.65H21.6723H21.6947H21.7215H21.7438H21.7662H21.7885H21.8109H21.8332H21.8556H21.8779H21.9003H21.9226H21.9449L21.9762 13.9678L22.8923 13.1103Z" fill="#A43E88"/>
<path fill-rule="evenodd" clip-rule="evenodd" d="M8.7828 9.26864C10.4163 8.86692 12.115 8.83162 13.763 9.16515L13.7717 9.16691C15.0889 9.44881 16.3393 9.99442 17.4512 10.7726C17.9397 11.1054 18.3844 11.4522 18.7781 11.7628C18.8177 11.7941 18.8567 11.8248 18.895 11.8551C19.2481 12.134 19.5476 12.3705 19.8232 12.5603C19.8383 12.5707 19.8531 12.5817 19.8675 12.5931C20.234 12.8838 20.6882 13.0339 21.1512 13.0173C21.6007 12.9544 22.0239 12.7632 22.3723 12.4653C22.7126 12.1745 23.2162 12.2167 23.5063 12.5603C23.7965 12.904 23.7668 13.4232 23.4396 13.7295L22.5235 14.587C22.5173 14.5928 22.511 14.5985 22.5046 14.6041L22.4734 14.6316C22.326 14.7612 22.1386 14.8324 21.9447 14.8324H21.7588C21.2061 15.0543 20.6284 15.199 20.0412 15.2639C20.0421 15.2652 20.0431 15.2666 20.0441 15.2679C20.1292 15.3864 20.2185 15.5106 20.2957 15.6235C20.385 15.7539 20.493 15.9186 20.566 16.0758C20.5983 16.1454 20.6609 16.2898 20.6772 16.4682C20.6952 16.6654 20.6572 17.0893 20.2531 17.3314C19.9601 17.507 19.6692 17.449 19.5871 17.4317C19.4632 17.4055 19.3466 17.3596 19.2514 17.3169C18.6057 17.0275 17.3 16.2288 16.181 15.5316C15.8944 15.3531 15.6148 15.1778 15.3548 15.0148L15.2994 14.9801C15.0604 14.8302 14.8396 14.6917 14.6454 14.5708C14.4357 14.4401 14.2612 14.3325 14.131 14.2544C14.0853 14.2271 14.0503 14.2066 14.0244 14.1915C13.9947 14.1837 13.9654 14.1741 13.9367 14.1628L13.6729 14.059C12.9318 13.7777 12.1413 13.6594 11.3526 13.7118L11.343 13.7125C10.3778 13.7649 9.43216 14.0115 8.55996 14.4383C7.78979 14.8471 7.12763 15.441 6.62985 16.169C6.6251 16.1759 6.62026 16.1828 6.61531 16.1896C6.08496 16.9171 5.71303 17.7528 5.52442 18.6401C5.34297 19.6561 5.3629 20.6993 5.58305 21.7073L5.58597 21.7213C5.80827 22.8266 6.21184 23.8854 6.77954 24.8523C7.26284 25.6583 7.90363 26.353 8.6617 26.8928C9.30388 27.3502 10.0152 27.6963 10.7669 27.917C11.3466 28.0565 11.9329 28.1658 12.5235 28.2443C12.833 28.2773 13.1323 28.3775 13.4014 28.5385C13.6747 28.702 13.9105 28.9243 14.0926 29.1904C14.1054 29.2091 14.1174 29.2283 14.1287 29.248C14.4421 29.7965 14.5426 30.4464 14.4097 31.0679C14.4071 31.0797 14.4044 31.0915 14.4013 31.1032C14.3231 31.4059 14.1832 31.6879 13.9912 31.9308C13.7992 32.1736 13.5593 32.3717 13.2875 32.5122C13.2752 32.5186 13.2628 32.5246 13.2502 32.5303C12.6235 32.8143 11.9241 32.8807 11.2581 32.7201C10.196 32.5608 9.15719 32.267 8.16533 31.8455L8.15371 31.8405C7.07395 31.3613 6.06997 30.7192 5.17507 29.9354C4.14284 29.0669 3.27975 28.0059 2.63136 26.8081C1.76098 25.2193 1.16971 23.4857 0.884656 21.6865L0.883459 21.679C0.616859 19.8937 0.782744 18.0686 1.36632 16.3647C1.93896 14.6565 2.89682 13.1116 4.16162 11.8558L4.17011 11.8475C5.4654 10.5979 7.05133 9.71067 8.776 9.27035L8.7828 9.26864ZM17.9213 14.6529C17.9174 14.5505 17.9267 14.4304 17.9656 14.3031C18.0437 14.0474 18.2177 13.8419 18.4486 13.7249C18.4809 13.7086 18.5131 13.6946 18.5449 13.6826C18.3361 13.5254 18.1222 13.3564 17.9086 13.1876C17.8684 13.1559 17.8283 13.1242 17.7882 13.0925C17.3955 12.7828 16.9881 12.4658 16.5489 12.1668L16.5399 12.1606C15.6049 11.5055 14.5531 11.0459 13.4447 10.8081C12.0282 10.5221 10.5684 10.5525 9.16441 10.8972C7.71249 11.2685 6.37773 12.0152 5.28727 13.0657C4.20854 14.1381 3.39201 15.4566 2.90397 16.9137L2.90206 16.9194C2.4073 18.3626 2.26632 19.9085 2.49153 21.4207C2.7461 23.0247 3.27359 24.5704 4.04999 25.9871L4.05217 25.991C4.60183 27.0069 5.33425 27.9068 6.21076 28.6431L6.22407 28.6545C6.99536 29.3311 7.86098 29.8855 8.79223 30.2995C9.66893 30.6715 10.5876 30.9295 11.5268 31.0674C11.5543 31.0715 11.5815 31.0769 11.6084 31.0838C11.9299 31.1662 12.2685 31.1389 12.5731 31.0065C12.6331 30.9728 12.6861 30.9275 12.7291 30.8731C12.7723 30.8185 12.8045 30.7558 12.8241 30.6888C12.8604 30.4982 12.8318 30.3005 12.743 30.1289C12.6992 30.072 12.6452 30.0238 12.5837 29.9869C12.513 29.9446 12.434 29.9184 12.3522 29.9103C12.3438 29.9094 12.3354 29.9085 12.327 29.9074C11.6712 29.8206 11.0202 29.6991 10.3767 29.5435C10.3649 29.5406 10.3532 29.5375 10.3415 29.5341C9.41099 29.2635 8.53048 28.8365 7.73577 28.2705C6.79204 27.5986 5.99409 26.7331 5.3924 25.7285L5.38875 25.7224C4.7257 24.594 4.25398 23.3583 3.99367 22.0678C3.72575 20.8366 3.70288 19.5626 3.92647 18.322C3.92795 18.3138 3.92956 18.3056 3.93128 18.2974C4.16788 17.1738 4.6368 16.1156 5.30612 15.1943C5.95723 14.2456 6.82232 13.473 7.82736 12.9423C7.83428 12.9386 7.84124 12.9351 7.84826 12.9316C8.91493 12.4075 10.0717 12.1045 11.2525 12.0397C12.2683 11.9729 13.2866 12.126 14.2412 12.4892L14.2495 12.4924L14.4069 12.5543C14.4617 12.5638 14.5156 12.5791 14.5676 12.6C14.6796 12.6449 14.8382 12.7397 14.95 12.8068C15.0928 12.8924 15.2771 13.0061 15.4881 13.1375C15.6844 13.2598 15.9073 13.3996 16.1458 13.5492L16.2015 13.5841C16.4615 13.7471 16.7393 13.9213 17.0237 14.0984C17.3251 14.2862 17.6283 14.4738 17.9213 14.6529Z" fill="#A43E88"/>
<path fill-rule="evenodd" clip-rule="evenodd" d="M32.1734 4.81073C31.7965 4.71203 31.4566 4.50083 31.1967 4.20385C30.9368 3.90686 30.7685 3.53745 30.7133 3.14234C30.658 2.74723 30.7182 2.34418 30.8863 1.98419C31.0543 1.6242 31.3226 1.32344 31.6573 1.11996C31.992 0.916489 32.3779 0.819445 32.7663 0.841109C33.1548 0.862774 33.5282 1.00217 33.8394 1.24167C34.1506 1.48116 34.3855 1.81 34.5146 2.18656C34.6436 2.56312 34.6609 2.97049 34.5642 3.35712C34.4337 3.87436 34.109 4.31758 33.661 4.58994C33.213 4.8623 32.6782 4.94168 32.1734 4.81073Z" fill="#F43072"/>
<path fill-rule="evenodd" clip-rule="evenodd" d="M32.7231 1.67701C32.4948 1.66428 32.2682 1.72133 32.0719 1.84068C31.8756 1.96001 31.7187 2.13614 31.6205 2.34645C31.5224 2.55673 31.4873 2.79197 31.5195 3.0225C31.5517 3.25304 31.6499 3.46891 31.802 3.6427C31.9539 3.81629 32.1529 3.94014 32.3739 3.99822C32.6707 4.07496 32.9849 4.02811 33.2479 3.86822C33.5108 3.70839 33.7007 3.44888 33.7771 3.14692C33.8333 2.92156 33.8231 2.68419 33.7479 2.46466C33.6726 2.2448 33.5352 2.05238 33.3529 1.91203C33.1705 1.77165 32.9513 1.68974 32.7231 1.67701ZM32.1742 4.81027L31.9753 5.62247C32.6879 5.80731 33.4429 5.69534 34.0756 5.31066C34.7084 4.92592 35.1678 4.29936 35.3526 3.56722L35.353 3.56538C35.4899 3.01775 35.4655 2.44073 35.2827 1.90745C35.1 1.37419 34.7674 0.908943 34.3274 0.570306C33.8874 0.231692 33.3597 0.0348007 32.8111 0.00420184C32.2625 -0.0263967 31.7172 0.110644 31.2442 0.398243C30.7712 0.685858 30.3915 1.11124 30.1536 1.62092C29.9156 2.13063 29.8303 2.70149 29.9086 3.26118C29.9869 3.82086 30.2251 4.34382 30.5928 4.76399C30.9605 5.18412 31.4411 5.48258 31.9735 5.62201L32.1742 4.81027Z" fill="#F43072"/>
<path fill-rule="evenodd" clip-rule="evenodd" d="M28.251 21.1393C28.7271 20.7324 29.3073 20.4745 29.9223 20.3965C30.5853 20.3663 31.2374 20.5774 31.7634 20.9926C32.4293 21.4511 33.2068 22.1481 34.1364 22.7809C35.1594 23.4988 36.3105 24.0021 37.5237 24.262C39.0586 24.5731 40.6409 24.5402 42.1623 24.1658C43.753 23.762 45.2152 22.9438 46.4076 21.7905C47.5821 20.6259 48.4718 19.1929 49.004 17.6085C49.5437 16.0339 49.6972 14.3472 49.4508 12.6974C49.1805 10.9955 48.6225 9.35523 47.8019 7.85049C47.1992 6.7427 46.3987 5.76114 45.4423 4.95703C44.609 4.22286 43.6718 3.62294 42.6628 3.17785C41.7216 2.77787 40.7352 2.50058 39.7268 2.35245C39.2231 2.22535 38.6928 2.27043 38.2163 2.48085C38.0467 2.56881 37.8971 2.69281 37.7777 2.8446C37.6583 2.99639 37.5717 3.17251 37.5237 3.36127C37.4372 3.77619 37.5041 4.20928 37.7114 4.57643C37.8267 4.74376 37.9758 4.88363 38.1485 4.9865C38.3213 5.08936 38.5136 5.15282 38.7124 5.17255C39.3358 5.253 39.9548 5.36626 40.5669 5.51187C41.4137 5.7589 42.2142 6.14947 42.9354 6.66742C43.7845 7.26693 44.504 8.03962 45.0491 8.93725C45.6655 9.98637 46.1038 11.1353 46.345 12.3351C46.5925 13.456 46.6138 14.6171 46.4076 15.7467C46.1959 16.7661 45.7722 17.7265 45.1653 18.5623C44.5889 19.4042 43.8222 20.0902 42.9309 20.5615C41.966 21.043 40.9184 21.325 39.8474 21.3915C38.9437 21.4512 38.0378 21.3153 37.1885 20.9926L36.9204 20.8871H36.8802C36.5674 20.7633 32.7421 18.2413 31.5713 17.7185C30.4005 17.1958 33.1845 19.8508 32.1969 19.8141C31.2909 19.755 30.3839 19.912 29.5469 20.2726H29.5246H29.5022H29.4754H29.4531H29.4307H29.4084H29.386H29.3637H29.3414H29.319H29.2967H29.2743H29.252H29.2296L29.1939 20.3002L28.251 21.1393Z" fill="#F26588"/>
<path fill-rule="evenodd" clip-rule="evenodd" d="M39.879 1.52877C40.9416 1.68809 41.9808 1.98191 42.9731 2.40359L42.9831 2.40792C44.0649 2.88511 45.0701 3.5279 45.9642 4.3144C46.9964 5.1838 47.8605 6.24438 48.5117 7.44118C49.3785 9.03096 49.9681 10.764 50.2537 12.5622L50.255 12.5701C50.5216 14.3555 50.3557 16.1807 49.772 17.8846C49.1977 19.5932 48.2382 21.1382 46.972 22.3937L46.9647 22.4009C45.6703 23.6529 44.0832 24.5408 42.3569 24.979L42.3513 24.9804C40.7163 25.3829 39.0159 25.4181 37.3663 25.0839L37.3577 25.0821C36.0417 24.8002 34.7928 24.2545 33.6825 23.4764C33.1941 23.1435 32.7495 22.7968 32.3558 22.4862C32.3162 22.455 32.2773 22.4243 32.239 22.394C31.8859 22.1151 31.5864 21.8786 31.3107 21.6888C31.2962 21.6787 31.282 21.6683 31.2681 21.6573C30.9024 21.3687 30.4507 21.2185 29.9896 21.2321C29.5409 21.2953 29.1185 21.4864 28.7706 21.7837C28.4273 22.0772 27.9184 22.0313 27.6299 21.6808C27.3414 21.3303 27.381 20.8061 27.7186 20.5057L28.6615 19.6665C28.676 19.6535 28.691 19.6411 28.7064 19.6293L28.7422 19.6018C28.8829 19.4935 29.0538 19.435 29.2294 19.435H29.3887C29.9411 19.2136 30.5182 19.0691 31.1048 19.004C31.1043 19.0033 31.1038 19.0026 31.1033 19.0019C31.0176 18.8828 30.9276 18.7578 30.8498 18.6441C30.7605 18.5137 30.6522 18.3486 30.5792 18.1909C30.5469 18.1211 30.484 17.9758 30.4682 17.7963C30.4506 17.596 30.4923 17.1742 30.8954 16.9346C31.1872 16.7611 31.4762 16.8182 31.5587 16.8356C31.6827 16.8616 31.7994 16.9074 31.8949 16.95C32.5435 17.2397 33.8499 18.0388 34.9686 18.7358C35.2816 18.9308 35.5667 19.1095 35.8307 19.2751C36.0709 19.4257 36.2937 19.5654 36.5042 19.6965C36.714 19.8271 36.8886 19.9347 37.0189 20.0126C37.0671 20.0414 37.1034 20.0626 37.1296 20.0777C37.157 20.0852 37.1841 20.0942 37.2107 20.1046L37.4744 20.2084C38.2157 20.4894 39.0063 20.6077 39.7952 20.5556L39.7982 20.5554C40.7598 20.4956 41.7005 20.243 42.5672 19.812C43.3382 19.4026 44.0012 18.8083 44.4999 18.0798C44.5043 18.0734 44.5088 18.067 44.5133 18.0607C45.0479 17.3245 45.4217 16.479 45.6095 15.5818C45.7931 14.568 45.7734 13.5265 45.5513 12.5207L45.548 12.5049C45.3259 11.4004 44.9228 10.3424 44.3557 9.37605C43.8704 8.57839 43.2303 7.89148 42.4749 7.35817L42.4695 7.35439C41.828 6.89365 41.1164 6.54521 40.3637 6.3233C39.7884 6.18716 39.2068 6.08092 38.6211 6.00497C38.3109 5.97228 38.0108 5.87231 37.7408 5.71152C37.467 5.54847 37.2305 5.32666 37.0475 5.06104C37.0332 5.04042 37.02 5.01915 37.0076 4.9973C36.6987 4.45013 36.5989 3.80433 36.7279 3.18552C36.7304 3.17331 36.7332 3.16115 36.7363 3.14907C36.8136 2.84507 36.953 2.5616 37.1451 2.31743C37.3372 2.07326 37.5776 1.874 37.8501 1.73271C37.865 1.72502 37.88 1.7178 37.8953 1.71106C38.5211 1.43466 39.2162 1.37106 39.879 1.52877ZM33.2257 19.613C33.2298 19.7154 33.2208 19.8356 33.182 19.9631C33.1042 20.2192 32.9302 20.4252 32.699 20.5424C32.6691 20.5575 32.6393 20.5707 32.6097 20.5821C32.812 20.7348 33.0188 20.8982 33.2254 21.0615C33.2656 21.0932 33.3057 21.1249 33.3458 21.1566C33.7385 21.4663 34.1459 21.7833 34.5851 22.0823L34.5945 22.0888C35.5279 22.7437 36.5781 23.2033 37.6851 23.4411C39.103 23.7277 40.5646 23.6973 41.97 23.3518C43.4225 22.9825 44.7575 22.2357 45.8465 21.1836C46.9269 20.1112 47.7451 18.7925 48.2347 17.3347L48.2364 17.3297C48.7311 15.8865 48.8721 14.3408 48.647 12.8286C48.3917 11.2248 47.8656 9.67884 47.0921 8.26049L47.0917 8.25977C46.5389 7.2438 45.8048 6.34344 44.9274 5.60574C44.925 5.60374 44.9226 5.60172 44.9203 5.59969C44.9178 5.5976 44.9154 5.5955 44.913 5.59338C44.1437 4.91559 43.2785 4.36145 42.347 3.94995C41.4701 3.57778 40.5511 3.31968 39.6116 3.18167C39.5851 3.17778 39.5588 3.17254 39.5328 3.16598C39.2098 3.08447 38.8702 3.11038 38.5629 3.23943C38.5041 3.27315 38.4521 3.31809 38.4099 3.37174C38.3667 3.42659 38.3347 3.48942 38.3153 3.55659C38.2797 3.74856 38.3082 3.94714 38.396 4.12049C38.4402 4.17696 38.4943 4.22481 38.5558 4.26144C38.6275 4.30414 38.7075 4.33055 38.7903 4.33876C38.798 4.33953 38.8057 4.34041 38.8134 4.34141C39.4644 4.42542 40.1108 4.54369 40.75 4.69574C40.7629 4.69882 40.7758 4.70223 40.7886 4.70597C41.7213 4.97808 42.6033 5.40816 43.3981 5.97854C44.3382 6.64283 45.1351 7.49881 45.7389 8.49327L45.7452 8.50373C46.4081 9.63189 46.8798 10.8673 47.1401 12.1575C47.4106 13.3877 47.4334 14.6617 47.2072 15.9014C47.2065 15.9052 47.2058 15.909 47.205 15.9128C47.2044 15.9158 47.2038 15.9188 47.2032 15.9218C46.9677 17.0557 46.4972 18.1241 45.8237 19.0544C45.1722 20.0027 44.3073 20.7753 43.3025 21.3066C43.2995 21.3082 43.2965 21.3097 43.2935 21.3113C43.2909 21.3126 43.2883 21.314 43.2857 21.3153C42.2255 21.8442 41.0745 22.1542 39.898 22.2275C38.8813 22.2945 37.8621 22.1415 36.9065 21.7784L36.8978 21.7751L36.7368 21.7117C36.6861 21.7023 36.6362 21.688 36.5879 21.6689C36.4735 21.6236 36.3132 21.528 36.2013 21.4611C36.0579 21.3754 35.8731 21.2615 35.662 21.13C35.4717 21.0116 35.2378 20.8649 34.9861 20.7072C34.7093 20.5336 34.411 20.3466 34.1259 20.169C33.8236 19.9807 33.5195 19.7925 33.2257 19.613Z" fill="#F26588"/>
<path fill-rule="evenodd" clip-rule="evenodd" d="M18.969 29.4388C19.3455 29.5385 19.6848 29.7506 19.9439 30.0482C20.203 30.3458 20.3702 30.7156 20.4245 31.1108C20.4788 31.5059 20.4177 31.9087 20.2488 32.2682C20.08 32.6277 19.8111 32.9278 19.4761 33.1304C19.1411 33.3331 18.755 33.4293 18.3667 33.4068C17.9784 33.3843 17.6054 33.2442 17.2947 33.0041C16.984 32.7641 16.7497 32.4349 16.6214 32.0582C16.493 31.6815 16.4765 31.2742 16.5737 30.8878C16.7052 30.3704 17.031 29.9275 17.4798 29.6559C17.9287 29.3844 18.4641 29.3063 18.969 29.4388Z" fill="#AC8CED"/>
<path fill-rule="evenodd" clip-rule="evenodd" d="M18.7668 30.2507C18.47 30.1731 18.1554 30.2192 17.8919 30.3786C17.6285 30.5379 17.438 30.7973 17.361 31.0993C17.3045 31.3245 17.3142 31.5619 17.3891 31.7815C17.464 32.0014 17.6009 32.194 17.783 32.3347C17.9651 32.4754 18.1841 32.5577 18.4122 32.571C18.6404 32.5842 18.867 32.5276 19.0636 32.4088C19.26 32.2899 19.4173 32.1142 19.516 31.9041C19.6146 31.6941 19.6502 31.4591 19.6186 31.2285C19.5869 30.9979 19.4893 30.7819 19.3376 30.6077C19.1862 30.4338 18.9876 30.3094 18.7668 30.2507ZM18.9687 29.4393L19.1698 28.6276C18.4572 28.4406 17.7013 28.5507 17.0673 28.9343C16.4332 29.3179 15.9723 29.944 15.7862 30.6764L15.7862 30.6764L15.7858 30.6782C15.648 31.2255 15.6715 31.8024 15.8533 32.3359C16.035 32.8693 16.3667 33.3351 16.806 33.6745C17.2452 34.0139 17.7724 34.2118 18.3208 34.2436C18.8692 34.2753 19.4146 34.1395 19.8882 33.8531C20.3617 33.5666 20.7422 33.1422 20.9813 32.6332C21.2203 32.1242 21.3069 31.5537 21.23 30.994C21.1531 30.4342 20.9162 29.9108 20.5497 29.4897C20.1832 29.0687 19.7035 28.769 19.1715 28.6281L18.9687 29.4393Z" fill="#AC8CED"/>
<path fill-rule="evenodd" clip-rule="evenodd" d="M28.2544 21.1396C28.7286 20.7331 29.3077 20.4766 29.9212 20.4013C30.585 20.3654 31.2389 20.5772 31.7624 20.9974C32.4282 21.4468 33.2237 22.1484 34.1174 22.7675C35.1404 23.4853 36.2916 23.9887 37.5048 24.2486C39.0443 24.5691 40.6334 24.541 42.1612 24.166C43.7519 23.7623 45.2142 22.9441 46.4066 21.7907C47.5836 20.6283 48.4737 19.1947 49.0029 17.6087C49.5425 16.0358 49.696 14.3506 49.4498 12.7022C49.1795 10.9989 48.6215 9.35711 47.8008 7.85076C47.1982 6.74425 46.3977 5.76419 45.4413 4.96189C44.6082 4.22627 43.671 3.62482 42.6617 3.17812C41.7198 2.78027 40.7337 2.50304 39.7257 2.35273C39.2216 2.22639 38.6911 2.27311 38.2153 2.48571C38.0456 2.57368 37.8961 2.69767 37.7767 2.84946C37.6572 3.00125 37.5707 3.17737 37.5226 3.36613C37.436 3.77956 37.5029 4.21128 37.7103 4.57671C37.825 4.74469 37.9739 4.88503 38.1468 4.98798C38.3197 5.09092 38.5123 5.154 38.7113 5.17282C39.1895 5.27371 39.8241 5.30122 40.5659 5.51215C41.4119 5.76109 42.2121 6.15151 42.9343 6.6677C43.7824 7.26841 44.5018 8.04086 45.0481 8.93753C45.6664 9.98569 46.1047 11.135 46.344 12.3354C46.5914 13.4579 46.6127 14.6204 46.4066 15.7516C46.194 16.7707 45.7703 17.7309 45.1642 18.5671C44.5858 19.4059 43.8195 20.09 42.9299 20.5618C41.965 21.0431 40.9173 21.3251 39.8464 21.3918C38.9423 21.4501 38.0364 21.3127 37.1875 20.9883L36.9193 20.8828H36.8791C36.5663 20.759 32.741 18.237 31.5702 17.7142C30.3994 17.1915 33.1879 19.8465 32.1959 19.8144C31.2913 19.7554 30.3858 19.9123 29.5503 20.2729H29.5235H29.5012H29.4744H29.452H29.4297H29.4073H29.385H29.3627H29.3403H29.318H29.2956H29.2733H29.2509H29.2286L29.1928 20.3004L28.2544 21.1396Z" fill="#A4448B"/>
<path fill-rule="evenodd" clip-rule="evenodd" d="M39.8789 1.52895C40.9413 1.69074 41.9808 1.98408 42.9746 2.40261L42.9892 2.4089C44.0684 2.88874 45.0711 3.53264 45.9636 4.31896C46.9957 5.18645 47.8598 6.24541 48.5109 7.4408C49.3779 9.03234 49.9676 10.7671 50.2532 12.567L50.2544 12.5747C50.5208 14.3583 50.355 16.1818 49.7717 17.8839C49.2002 19.5948 48.2398 21.1411 46.9702 22.3949L46.9641 22.4009C45.6697 23.653 44.0826 24.5409 42.3563 24.979L42.3502 24.9806C40.7076 25.3837 38.999 25.414 37.3437 25.0693L37.3392 25.0684C36.0222 24.7862 34.7724 24.2399 33.6614 23.4607C33.1927 23.136 32.7531 22.792 32.3615 22.4848L32.3419 22.4694C31.9486 22.1609 31.615 21.8992 31.3165 21.6977C31.2979 21.6851 31.2798 21.6718 31.2622 21.6577C30.9005 21.3672 30.4498 21.2179 29.9907 21.2363C29.5432 21.2966 29.1217 21.4862 28.7754 21.783C28.4326 22.0769 27.9239 22.0318 27.6348 21.682C27.3458 21.3323 27.3842 20.8081 27.721 20.507L28.6595 19.6678C28.6745 19.6544 28.69 19.6416 28.7059 19.6293L28.7416 19.6018C28.8823 19.4935 29.0532 19.435 29.2289 19.435H29.3924C29.9447 19.2134 30.5219 19.0687 31.1086 19.0038C31.1064 19.0008 31.1043 18.9978 31.1021 18.9948C31.017 18.8766 30.9279 18.7528 30.8507 18.6402C30.7613 18.5098 30.6529 18.345 30.5798 18.1875C30.5474 18.1179 30.4844 17.973 30.4682 17.794C30.4503 17.5949 30.49 17.1716 30.894 16.9306C31.1863 16.7563 31.4762 16.8138 31.5583 16.8311C31.6822 16.8571 31.7989 16.9029 31.8943 16.9455C32.543 17.2351 33.8493 18.0343 34.9681 18.7312C35.281 18.9262 35.5661 19.105 35.8301 19.2706C36.0703 19.4212 36.2931 19.5609 36.5037 19.692C36.7135 19.8226 36.888 19.9301 37.0183 20.008C37.0665 20.0369 37.1028 20.058 37.1291 20.0731C37.1565 20.0806 37.1835 20.0896 37.2101 20.1001L37.4745 20.2041C38.2156 20.4867 39.0065 20.6065 39.7958 20.5555L39.7976 20.5554C40.759 20.4956 41.6996 20.2431 42.5662 19.8123C43.3366 19.4019 43.9999 18.8086 44.501 18.082C44.5047 18.0766 44.5084 18.0713 44.5123 18.066C45.0464 17.329 45.4203 16.4834 45.609 15.5861C45.7926 14.5708 45.7728 13.5278 45.5507 12.5205L45.5471 12.5035C45.3271 11.3993 44.9241 10.3419 44.3558 9.3772C43.869 8.57967 43.2285 7.89235 42.4733 7.3575L42.4705 7.35548C41.8227 6.89247 41.1049 6.54203 40.346 6.3183C40.0246 6.22715 39.7204 6.17372 39.4247 6.13014C39.3549 6.11985 39.2814 6.10963 39.2061 6.09916C39.0006 6.07058 38.7819 6.04016 38.5897 6.00166C38.2902 5.96656 38.0008 5.8683 37.7396 5.71276C37.4646 5.549 37.2275 5.32563 37.0448 5.05801C37.0317 5.03888 37.0194 5.01918 37.008 4.99899C36.6981 4.45293 36.5979 3.80745 36.7275 3.18923C36.73 3.17732 36.7327 3.16547 36.7357 3.15369C36.8131 2.84969 36.9525 2.56622 37.1446 2.32204C37.3367 2.07788 37.577 1.87862 37.8496 1.73733C37.8634 1.73018 37.8774 1.72343 37.8915 1.7171C38.5176 1.43731 39.2143 1.37162 39.8789 1.52895ZM33.2266 19.6093C33.2308 19.7128 33.2217 19.8344 33.1822 19.9635C33.1041 20.2182 32.9311 20.4231 32.7015 20.5404C32.6705 20.5562 32.6396 20.5699 32.6089 20.5818C32.8364 20.7509 33.0698 20.934 33.3018 21.1161L33.348 21.1524C33.7434 21.4625 34.1477 21.7784 34.572 22.0722L34.5761 22.0751C35.5099 22.7304 36.5608 23.1901 37.6685 23.4277C39.0906 23.7235 40.5585 23.6976 41.9699 23.3517C43.4224 22.9824 44.7575 22.2354 45.8465 21.183C46.9287 20.1133 47.7469 18.7946 48.2336 17.3363L48.2359 17.3296C48.7304 15.888 48.8713 14.3438 48.6464 12.8332C48.3912 11.2278 47.865 9.68024 47.0914 8.26022C46.5388 7.24567 45.8047 6.3468 44.9275 5.61095C44.9223 5.60654 44.9171 5.60207 44.9119 5.59752C44.1438 4.9196 43.2805 4.36419 42.351 3.95004C41.471 3.58017 40.5502 3.32204 39.6091 3.18142C39.5837 3.17762 39.5585 3.17259 39.5335 3.16633C39.2102 3.08531 38.8704 3.11246 38.5637 3.2433C38.5043 3.2771 38.4519 3.32231 38.4093 3.37636C38.3661 3.43131 38.334 3.49427 38.3146 3.56159C38.279 3.75228 38.3077 3.94967 38.3957 4.12151C38.4394 4.17819 38.4932 4.22614 38.5546 4.26268C38.6253 4.30482 38.7043 4.33072 38.7861 4.33845C38.8159 4.34127 38.8456 4.34579 38.875 4.35199C39.019 4.38238 39.1715 4.40359 39.368 4.43093C39.4543 4.44293 39.5491 4.45612 39.6553 4.47178C39.9808 4.51975 40.3637 4.58532 40.7828 4.7045L40.7898 4.70649C41.7211 4.98051 42.6021 5.41023 43.3973 5.9784C44.3362 6.64367 45.1327 7.49912 45.7377 8.49225L45.7439 8.5025C46.4092 9.63028 46.8813 10.8668 47.1397 12.1583C47.41 13.3898 47.4328 14.6649 47.2066 15.9058C47.2056 15.9113 47.2046 15.9169 47.2035 15.9224C47.2031 15.924 47.2028 15.9256 47.2025 15.9272C46.9659 17.0608 46.4953 18.129 45.8225 19.0598C45.1692 20.0044 44.3052 20.7746 43.3028 21.3062C43.2969 21.3093 43.291 21.3124 43.285 21.3153C42.2243 21.8444 41.0728 22.1544 39.8958 22.2276C38.8788 22.293 37.8597 22.1382 36.9046 21.7733L36.8973 21.7705L36.7362 21.7071C36.6855 21.6978 36.6357 21.6835 36.5874 21.6644C36.4729 21.6191 36.3126 21.5235 36.2007 21.4565C36.0573 21.3708 35.8726 21.2569 35.6615 21.1255C35.4711 21.007 35.2371 20.8603 34.9854 20.7025C34.7086 20.529 34.4104 20.342 34.1254 20.1645C33.8236 19.9764 33.5199 19.7886 33.2266 19.6093Z" fill="#A4448B"/>
<path fill-rule="evenodd" clip-rule="evenodd" d="M26.0115 24.1793C26.293 23.7987 27.6158 21.8591 28.0224 21.4739C28.4291 21.0887 28.2459 21.2721 28.3576 21.185C28.7432 20.8155 29.1799 20.5065 29.6535 20.2679C30.4905 19.9072 31.3975 19.7503 32.3035 19.8093C33.2848 19.8565 34.2585 20.0102 35.2082 20.2679C35.8152 20.4331 36.4121 20.6352 36.9957 20.8732H37.0404C36.3387 20.5603 35.6707 20.173 35.0473 19.7176C34.3098 19.1565 33.5446 18.6346 32.7549 18.154C32.0064 17.7345 31.1905 17.4565 30.3462 17.3332C29.5491 17.2065 28.7336 17.2982 27.9822 17.5991C27.1367 17.9829 26.3649 18.5187 25.7031 19.1811C25.0179 19.9504 24.3947 20.7754 23.8397 21.6481C23.5506 22.042 23.2836 22.4523 23.0397 22.8771L20.6624 21.3547L21.3818 27.9303L27.8303 25.8026L25.7612 24.537L26.0115 24.1793Z" fill="#AC8CED"/>
<path fill-rule="evenodd" clip-rule="evenodd" d="M30.466 16.5012C31.4052 16.639 32.3128 16.9486 33.1457 17.4153C33.1542 17.42 33.1625 17.4249 33.1708 17.43C33.9823 17.9238 34.7686 18.46 35.5267 19.0363C36.1019 19.4558 36.7181 19.8128 37.3654 20.1014C37.7208 20.26 37.9194 20.6536 37.8407 21.0441C37.7621 21.4346 37.4279 21.7145 37.0405 21.7145H36.9958C36.8928 21.7145 36.7907 21.6945 36.6949 21.6554C36.1413 21.4297 35.5752 21.238 34.9995 21.0813M34.9994 21.0813C34.1055 20.8388 33.1891 20.6942 32.2655 20.6498L32.2519 20.649C31.4795 20.5987 30.7062 20.7306 29.9915 21.0345C29.5982 21.2353 29.2354 21.4934 28.9144 21.8009C28.8943 21.8203 28.8731 21.8385 28.8512 21.8557C28.8295 21.8726 28.7964 21.8977 28.7573 21.9225C28.7197 21.9573 28.6627 22.0108 28.5759 22.0931C28.5293 22.1372 28.4084 22.2784 28.2177 22.527C28.0401 22.7586 27.8339 23.0407 27.6274 23.3283C27.4254 23.6099 27.2153 23.908 27.0391 24.1582C27.0081 24.2022 26.9781 24.2447 26.9495 24.2854L28.2478 25.0796C28.5242 25.2487 28.6786 25.5688 28.6424 25.8976C28.6061 26.2264 28.386 26.5028 28.0798 26.6038L21.6314 28.7315C21.3981 28.8085 21.1437 28.7737 20.938 28.6367C20.7324 28.4998 20.5973 28.2751 20.5698 28.0246L19.8504 21.449C19.8153 21.1285 19.9613 20.8157 20.2261 20.6435C20.491 20.4714 20.8282 20.4702 21.0941 20.6405L22.7835 21.7224C22.9082 21.533 23.0374 21.3468 23.171 21.1639C23.7466 20.2618 24.392 19.4087 25.1009 18.6128C25.1114 18.6009 25.1223 18.5894 25.1335 18.5782C25.865 17.8459 26.7182 17.2537 27.6526 16.8296C27.6636 16.8246 27.6748 16.8198 27.686 16.8153C28.5697 16.4614 29.5286 16.3531 30.466 16.5012M28.8037 21.8802C28.8059 21.8784 28.8054 21.8789 28.8027 21.8811C28.8031 21.8808 28.8034 21.8805 28.8037 21.8802ZM28.3247 22.0543C28.3027 22.0549 28.2939 22.0544 28.3113 22.0544C28.3152 22.0544 28.3197 22.0544 28.3247 22.0543ZM32.5012 18.9777C32.4515 18.947 32.4017 18.9164 32.3518 18.886C31.6925 18.5185 30.9745 18.2747 30.2315 18.1662L30.2216 18.1647C29.5722 18.0615 28.908 18.1346 28.2951 18.3767C27.5522 18.7163 26.8734 19.1872 26.2895 19.7678C25.6406 20.4984 25.05 21.2813 24.5235 22.1091C24.5134 22.1249 24.5029 22.1403 24.4918 22.1553C24.2214 22.5238 23.9715 22.9077 23.7434 23.3051C23.6315 23.5001 23.448 23.6403 23.2343 23.6942C23.0207 23.7481 22.7949 23.7111 22.6082 23.5915L21.6634 22.9865L22.0824 26.816L25.8531 25.5718L25.3438 25.2603C25.1468 25.1398 25.008 24.9396 24.9613 24.7086C24.9145 24.4776 24.9642 24.237 25.0982 24.0455L25.3484 23.6879C25.3527 23.6818 25.357 23.6758 25.3614 23.6699C25.4273 23.5808 25.5454 23.4129 25.6976 23.1965C25.8683 22.9539 26.0819 22.6504 26.3128 22.3286C26.5231 22.0356 26.7414 21.7368 26.935 21.4844C27.1155 21.2491 27.3124 21.0035 27.4692 20.855C27.571 20.7585 27.6399 20.6939 27.6868 20.6508C27.71 20.6295 27.7319 20.6097 27.7519 20.5924C27.7672 20.5792 27.8015 20.5497 27.8438 20.5204C27.8508 20.5155 27.8612 20.5083 27.875 20.4996C28.3011 20.1045 28.7788 19.7723 29.2943 19.5125C29.3087 19.5052 29.3233 19.4984 29.3381 19.4921C30.289 19.0823 31.3192 18.9035 32.3484 18.9695C32.3993 18.972 32.4503 18.9747 32.5012 18.9777ZM28.2914 20.3722C28.2791 20.3727 28.2639 20.3734 28.2472 20.3747C28.2643 20.3733 28.2791 20.3726 28.2914 20.3722Z" fill="#AC8CED"/>
<path fill-rule="evenodd" clip-rule="evenodd" d="M22.8921 13.1103C22.4159 13.5173 21.8358 13.7752 21.2208 13.8532C20.5545 13.8872 19.8984 13.6758 19.3707 13.2571C18.7048 12.7985 17.9273 12.1015 16.9978 11.4687C15.9726 10.7519 14.8202 10.2487 13.606 9.98759C12.0724 9.67656 10.4912 9.71098 8.97185 10.0885C7.38299 10.4946 5.92164 11.3107 4.72652 12.4592C3.5548 13.6252 2.66691 15.0578 2.13463 16.6412C1.59522 18.2158 1.44174 19.9024 1.68775 21.5523C1.95696 23.2551 2.51668 24.8958 3.3412 26.3992C3.94099 27.5077 4.7401 28.4895 5.69624 29.2926C6.53193 30.0247 7.46861 30.6258 8.47582 31.0764C9.41781 31.473 10.4039 31.7487 11.4118 31.8972C11.9155 32.0246 12.4459 31.9795 12.9223 31.7688C13.0919 31.6808 13.2415 31.5568 13.3609 31.4051C13.4803 31.2533 13.5669 31.0771 13.6149 30.8884C13.7023 30.474 13.637 30.0411 13.4317 29.6732C13.3153 29.5069 13.166 29.3678 12.9934 29.2651C12.8209 29.1623 12.6291 29.0983 12.4307 29.0771C11.9525 28.9808 11.3135 28.9487 10.5717 28.7424C9.72426 28.4912 8.92267 28.0993 8.19875 27.5822C7.35113 26.9843 6.63303 26.2131 6.08949 25.317C5.47311 24.2673 5.03348 23.1186 4.78908 21.9191C4.54388 20.7964 4.5226 19.6343 4.72652 18.5029C4.93508 17.4833 5.35748 16.5226 5.96437 15.6874C6.54061 14.8465 7.30742 14.1619 8.19875 13.6927C9.16937 13.2118 10.2237 12.9343 11.3001 12.8765C12.2039 12.8164 13.1098 12.9523 13.959 13.2754C14.0529 13.3121 14.1378 13.3442 14.2271 13.3855H14.2718C14.5802 13.5139 18.4099 16.0359 19.5763 16.5541C20.7426 17.0722 17.963 14.4218 18.9506 14.4585C19.8566 14.518 20.7638 14.3611 21.6006 13.9999H21.623H21.6453H21.6721H21.6945H21.7168H21.7391H21.7615H21.7838H21.8062H21.8285H21.8509H21.8732H21.8956H21.9179L21.9492 13.9678L22.8921 13.1103Z" fill="#F43072"/>
<path fill-rule="evenodd" clip-rule="evenodd" d="M8.78073 9.27372C10.4143 8.86786 12.1142 8.83085 13.7631 9.16526L13.7722 9.1671C15.0887 9.45018 16.3385 9.99559 17.4507 10.7724C17.9394 11.1054 18.3841 11.4522 18.7779 11.7629C18.8175 11.7941 18.8564 11.8249 18.8948 11.8551C19.2479 12.134 19.5474 12.3706 19.823 12.5604C19.8381 12.5708 19.8529 12.5817 19.8673 12.5931C20.2337 12.8839 20.6879 13.0339 21.1509 13.0173C21.6004 12.9545 22.0236 12.7632 22.3721 12.4654C22.7141 12.1731 23.2207 12.2174 23.5099 12.5649C23.7991 12.9125 23.7638 13.4346 23.4307 13.7376L22.5061 14.5784L22.4922 14.5926C22.3397 14.7492 22.1331 14.8371 21.9177 14.8371H21.7586C21.2059 15.0589 20.6282 15.2036 20.0409 15.2685C20.0419 15.2699 20.0429 15.2712 20.0438 15.2726C20.129 15.391 20.2182 15.5152 20.2955 15.6282C20.3847 15.7585 20.4928 15.9232 20.5657 16.0804C20.598 16.15 20.6607 16.2944 20.677 16.4728C20.695 16.67 20.657 17.0939 20.2529 17.336C19.9598 17.5116 19.6689 17.4536 19.5869 17.4363C19.463 17.4102 19.3464 17.3642 19.2512 17.3215C18.6057 17.0322 17.3004 16.2349 16.181 15.5381C15.8603 15.3385 15.5387 15.1369 15.2459 14.9533C15.0249 14.8147 14.8203 14.6865 14.6449 14.5772C14.4351 14.4464 14.2602 14.3383 14.1296 14.2597C14.0833 14.2318 14.0476 14.2108 14.021 14.1953C13.9776 14.1836 13.9351 14.1682 13.8939 14.1492C13.8398 14.1242 13.7896 14.1046 13.7076 14.0727C13.6968 14.0685 13.6854 14.064 13.6734 14.0593C12.9321 13.7778 12.1413 13.6594 11.3523 13.7119L11.3423 13.7125C10.3767 13.7643 9.43082 14.0126 8.55978 14.4428C7.78904 14.8485 7.12665 15.4409 6.62998 16.1685C6.62535 16.1753 6.62062 16.182 6.6158 16.1886C6.08169 16.9236 5.70947 17.7686 5.52462 18.6652C5.34271 19.682 5.36248 20.726 5.58282 21.7349L5.5853 21.7467C5.81048 22.8519 6.21522 23.9104 6.78264 24.8779C7.26635 25.6739 7.90491 26.3591 8.65858 26.8908L8.6625 26.8935C9.31165 27.3572 10.0303 27.7091 10.7902 27.935C11.1127 28.0243 11.4188 28.0778 11.7148 28.1213C11.7904 28.1324 11.8702 28.1434 11.9516 28.1546C12.1544 28.1826 12.3676 28.2121 12.553 28.2479C12.8517 28.2852 13.1401 28.3843 13.4007 28.5396C13.6726 28.7015 13.9082 28.9208 14.0918 29.1832C14.1081 29.2064 14.1232 29.2306 14.1371 29.2554C14.4429 29.8032 14.5402 30.4482 14.4099 31.0656C14.4075 31.0772 14.4048 31.0886 14.4019 31.1001C14.3246 31.4041 14.1852 31.6875 13.9931 31.9317C13.801 32.1759 13.5606 32.3751 13.2881 32.5164C13.2734 32.524 13.2585 32.5312 13.2434 32.5379C12.6174 32.8148 11.9219 32.8785 11.2587 32.7203C10.1978 32.5607 9.15974 32.2689 8.16757 31.8512L8.15126 31.8441C7.07314 31.3618 6.07025 30.7187 5.17506 29.9356C4.1428 29.0672 3.27967 28.0061 2.63125 26.8084C1.76024 25.2197 1.16888 23.4858 0.884376 21.6863L0.883196 21.6788C0.616986 19.8935 0.782913 18.0684 1.36621 16.3644C1.94044 14.6575 2.89778 13.1133 4.16072 11.8565L4.171 11.8464C5.46746 10.6005 7.0525 9.71545 8.77555 9.27503L8.78073 9.27372ZM17.9211 14.6587C17.9171 14.5561 17.9263 14.4356 17.9653 14.3077C18.0434 14.052 18.2174 13.8465 18.4484 13.7296C18.482 13.7125 18.5156 13.698 18.5488 13.6857C18.3386 13.5277 18.1234 13.3576 17.9083 13.1877C17.8682 13.1559 17.828 13.1242 17.7879 13.0926C17.3952 12.7828 16.9879 12.4659 16.5487 12.1669L16.5403 12.1611C15.6045 11.5067 14.5525 11.047 13.4439 10.808C12.0278 10.5215 10.5681 10.5534 9.16519 10.9016C7.71381 11.273 6.379 12.0181 5.28682 13.066C4.20942 14.1398 3.39308 15.4581 2.90344 16.9146L2.90188 16.9192C2.4074 18.3627 2.26643 19.9086 2.49133 21.421C2.74536 23.0249 3.27282 24.5705 4.04962 25.9869L4.05193 25.9911C4.6016 27.007 5.33401 27.9069 6.21052 28.6431L6.22342 28.6542C6.99577 29.3308 7.86125 29.8867 8.79191 30.3041C9.66955 30.6728 10.5881 30.9292 11.5269 31.0675C11.5535 31.0714 11.5798 31.0767 11.6059 31.0833C11.9286 31.165 12.2681 31.139 12.5751 31.0098C12.634 30.9761 12.686 30.9311 12.7283 30.8774C12.7717 30.8223 12.8038 30.7591 12.8232 30.6916C12.8593 30.5007 12.8323 30.3031 12.7468 30.1298C12.7018 30.0738 12.6473 30.0263 12.5857 29.9896C12.5125 29.946 12.431 29.9188 12.3466 29.9098C12.3223 29.9072 12.2982 29.9035 12.2743 29.8987C12.1313 29.8699 11.981 29.8491 11.7912 29.823C11.6995 29.8103 11.5986 29.7964 11.4849 29.7797C11.1584 29.7318 10.7762 29.6665 10.3592 29.5505L10.3463 29.5468C9.41454 29.2707 8.53297 28.8398 7.73664 28.2713C6.79748 27.6084 6.00163 26.7535 5.39905 25.7601L5.3929 25.7498C4.73015 24.6212 4.25712 23.3862 3.99366 22.0964C3.72553 20.8649 3.70258 19.5905 3.92623 18.3496C3.92742 18.343 3.92869 18.3364 3.93004 18.3298C4.16219 17.1949 4.63149 16.1254 5.30535 15.1951C5.95595 14.2456 6.82238 13.4735 7.82933 12.9457L7.84562 12.9374C8.91201 12.409 10.0702 12.1039 11.2525 12.0397C12.2683 11.9729 13.2864 12.126 14.241 12.4892L14.2477 12.4918C14.2582 12.4959 14.2692 12.5002 14.2806 12.5046C14.3239 12.5215 14.3736 12.5408 14.4266 12.5627C14.4779 12.5729 14.5282 12.5882 14.5768 12.6085C14.6833 12.6528 14.8373 12.745 14.9509 12.8134C15.0933 12.899 15.2773 13.0128 15.4881 13.1442C15.6768 13.2619 15.8822 13.3907 16.1018 13.5284C16.3871 13.7072 16.6961 13.901 17.0232 14.1046C17.3246 14.2923 17.628 14.4798 17.9211 14.6587Z" fill="#F43072"/>
<path fill-rule="evenodd" clip-rule="evenodd" d="M25.1312 10.0698C24.8541 10.4504 23.5313 12.3947 23.1202 12.7798C22.7091 13.165 22.8968 12.9816 22.7851 13.0687C22.3991 13.4378 21.9625 13.7468 21.4891 13.9858C20.6542 14.3484 19.7482 14.5054 18.8436 14.4444C17.862 14.3999 16.8881 14.2462 15.9389 13.9858C15.3319 13.8223 14.735 13.6217 14.1514 13.3851H14.1067C14.807 13.6981 15.4735 14.0854 16.0953 14.5407C16.8344 15.1018 17.6011 15.6237 18.3922 16.1043C19.1388 16.5238 19.9534 16.8004 20.7964 16.9206C21.595 17.0472 22.4119 16.9554 23.1649 16.6546C24.0099 16.2725 24.7806 15.7365 25.4395 15.0726C26.1235 14.3214 26.7453 13.5131 27.2985 12.656C27.5889 12.2648 27.856 11.8559 28.0984 11.4317L30.4758 12.9541L29.7697 6.31885L23.3258 8.45111L25.3948 9.71672L25.1312 10.0698Z" fill="#FF7B62"/>
<path fill-rule="evenodd" clip-rule="evenodd" d="M30.2146 5.61297C30.4205 5.75046 30.5556 5.97597 30.5823 6.22716L31.2884 12.8624C31.3224 13.1825 31.176 13.4945 30.9113 13.666C30.6465 13.8375 30.3099 13.8384 30.0443 13.6683L28.3548 12.5864C28.2295 12.7758 28.0994 12.9619 27.9645 13.1444C27.3899 14.0319 26.7448 14.8692 26.0359 15.6478C26.0279 15.6566 26.0197 15.6652 26.0113 15.6737C25.2819 16.4086 24.4289 17.0018 23.4938 17.4247C23.4829 17.4296 23.4719 17.4343 23.4608 17.4387C22.5761 17.7922 21.6166 17.9005 20.6784 17.7529C19.7397 17.6183 18.8324 17.3099 18.0009 16.8426C17.9929 16.8381 17.9849 16.8335 17.9771 16.8287C17.164 16.3348 16.376 15.7985 15.6162 15.222C15.0424 14.8025 14.4274 14.4454 13.7814 14.1566C13.4261 13.9979 13.2279 13.6042 13.3067 13.2139C13.3855 12.8236 13.7196 12.5438 14.1069 12.5438H14.1515C14.254 12.5438 14.3556 12.5637 14.451 12.6023C15.0044 12.8267 15.5704 13.0169 16.146 13.1719L16.1495 13.1729C17.0416 13.4176 17.9571 13.5621 18.8797 13.6039L18.8972 13.6049C19.6673 13.6569 20.4384 13.525 21.1501 13.2199C21.5439 13.0186 21.9072 12.76 22.229 12.4523C22.249 12.4332 22.2699 12.4151 22.2917 12.3981C22.3126 12.3819 22.3438 12.3582 22.3802 12.3346C22.4187 12.2993 22.4781 12.2441 22.5703 12.1576C22.6161 12.1147 22.7368 11.9746 22.928 11.7256C23.1058 11.4941 23.3121 11.2118 23.5184 10.9238C23.7403 10.614 23.9767 10.2767 24.1637 10.0097C24.175 9.99367 24.1861 9.97787 24.197 9.96233L22.9085 9.17419C22.6322 9.0052 22.4778 8.68523 22.5139 8.35652C22.55 8.02782 22.7699 7.7514 23.0758 7.65017L29.5198 5.5179C29.7535 5.44057 30.0086 5.47548 30.2146 5.61297ZM25.7824 10.5781C25.7203 10.6637 25.6198 10.8073 25.4914 10.9908C25.3157 11.2419 25.0878 11.5678 24.8339 11.9222C24.6234 12.216 24.4047 12.5158 24.2102 12.769C24.0291 13.0048 23.8302 13.2522 23.6705 13.4019C23.5676 13.4982 23.4989 13.5621 23.4527 13.6043C23.4298 13.6252 23.4089 13.6441 23.3902 13.6603C23.3761 13.6726 23.3447 13.6997 23.3068 13.7268L23.3048 13.7282C23.2983 13.7329 23.2868 13.7411 23.2707 13.7515C22.8439 14.1473 22.3655 14.4803 21.8492 14.741C21.8353 14.748 21.8212 14.7546 21.8069 14.7608C20.8576 15.1731 19.8277 15.3523 18.7992 15.2843C18.7456 15.2818 18.6919 15.2791 18.6383 15.276C18.6907 15.3083 18.7431 15.3405 18.7957 15.3725C19.4522 15.7394 20.168 15.9816 20.9087 16.0872L20.921 16.0891C21.5722 16.1923 22.2383 16.1191 22.853 15.8768C23.5961 15.5383 24.2743 15.0665 24.8557 14.4838C25.5038 13.7705 26.0932 13.0034 26.618 12.1904C26.6279 12.175 26.6384 12.16 26.6492 12.1453C26.9197 11.7809 27.1684 11.4001 27.3942 11.0051C27.5059 10.8097 27.6895 10.6689 27.9033 10.6148C28.1172 10.5606 28.3433 10.5976 28.5303 10.7173L29.4806 11.3259L29.0666 7.43509L25.3015 8.68092L25.8125 8.99346C26.0133 9.11633 26.1535 9.32183 26.1976 9.55804C26.2416 9.79426 26.1853 10.0386 26.0429 10.2293L25.7824 10.5781ZM22.8523 13.8815C22.8674 13.8809 22.8866 13.8799 22.9076 13.8779C22.8863 13.8801 22.8676 13.8811 22.8523 13.8815ZM22.8308 12.1994C22.8261 12.1994 22.8208 12.1994 22.8149 12.1995C22.8397 12.1987 22.8498 12.1994 22.8308 12.1994Z" fill="#FF7B62"/>
</svg>
