<svg width="53" height="47" viewBox="0 0 53 47" fill="none" xmlns="http://www.w3.org/2000/svg">
<path d="M42.2066 39.4837H1.78763C1.07962 39.4837 0.437551 39.0649 0.150689 38.4173C-0.132995 37.7705 -0.00982619 37.0132 0.466953 36.4895C6.27969 30.1221 7.12518 22.6351 7.17206 15.4953C7.17445 15.1719 7.16968 13.3538 7.16729 11.1415C7.14902 1.06322 7.14902 1.06322 7.68381 0.523662C8.01914 0.188327 8.47526 0 8.95045 0H43.0005C43.9874 0 44.7884 0.80099 44.7884 1.78792L44.7749 9.11444C44.7622 13.5445 44.7518 17.9706 44.7796 22.3935C44.817 26.9452 44.7701 37.6727 43.5193 38.9338C43.1824 39.2715 42.6842 39.4837 42.2066 39.4837ZM5.48506 35.9079H40.7755C41.0735 32.7095 41.2181 24.1632 41.2038 22.419C41.176 17.9817 41.1871 13.5445 41.199 9.1049L41.2101 3.57585H10.732C10.732 5.46866 10.7392 8.56693 10.7439 11.1352C10.7463 13.3586 10.7511 15.1886 10.7487 15.5168C10.7066 21.993 9.98983 29.3307 5.48506 35.9079Z" fill="#F43072"/>
<path d="M49.7543 46.8358H10.8165C9.82955 46.8358 9.02856 46.0348 9.02856 45.0478C9.02856 44.0609 9.82955 43.2599 10.8165 43.2599H48.0824C48.4956 36.7598 48.6227 30.1278 48.6227 30.0555V9.17971H43.0015C42.0146 9.17971 41.2136 8.37872 41.2136 7.39178C41.2136 6.40485 42.0146 5.60386 43.0015 5.60386H50.4106C51.3976 5.60386 52.1986 6.40485 52.1986 7.39178V30.0881C52.197 30.2001 52.0452 38.1011 51.5374 45.1758C51.4707 46.1118 50.6927 46.8358 49.7543 46.8358Z" fill="#F43072"/>
<path d="M30.551 31.8759C30.18 31.8759 29.8057 31.7615 29.4862 31.5223C28.6932 30.9335 28.5303 29.8139 29.1183 29.0224L29.402 28.6426C30.2475 27.5253 32.2222 24.911 31.3155 24.0981C30.594 23.4489 29.3678 23.7627 27.4353 24.3563C25.4869 24.9547 23.2754 25.6278 21.2848 24.5264C17.2902 22.3125 19.5112 17.8308 20.7055 15.4239C21.0035 14.8207 21.2848 14.274 21.4342 13.829C21.5717 13.415 21.702 12.8556 21.5296 12.537C21.1545 11.8504 19.2506 11.3657 18.3352 11.1329C17.3784 10.8905 16.7983 9.91786 17.0431 8.96113C17.2878 8.00201 18.2724 7.43146 19.2148 7.66906C21.408 8.2253 23.6338 8.92855 24.6668 10.8261C25.3025 11.9903 25.3534 13.3825 24.8225 14.9654C24.6318 15.5359 24.2893 16.2408 23.9079 17.0115C22.4712 19.9096 22.2551 20.976 23.0163 21.3979C23.6751 21.7658 25.053 21.3447 26.3872 20.9394C28.6328 20.2529 31.4267 19.3986 33.7034 21.4353C37.0559 24.443 33.6922 28.8969 32.2555 30.7984L31.9854 31.1544C31.6357 31.6264 31.097 31.8759 30.551 31.8759Z" fill="#F43072"/>
</svg>
