<svg width="23" height="21" viewBox="0 0 23 21" fill="none" xmlns="http://www.w3.org/2000/svg">
<path fill-rule="evenodd" clip-rule="evenodd" d="M9.66808 12.9627C9.71821 12.49 9.89332 10.1219 10.0584 9.5775C10.2234 9.03309 10.1519 9.28825 10.2056 9.15565C10.3568 8.63803 10.5826 8.14737 10.8759 7.69936C11.4229 6.96077 12.1359 6.36601 12.9578 5.96268C13.8386 5.50599 14.768 5.14872 15.7295 4.89713C16.3428 4.73368 16.9661 4.60773 17.5959 4.51995L17.635 4.49739C16.8645 4.57724 16.0862 4.57507 15.3125 4.49089C14.3829 4.37333 13.449 4.30401 12.5144 4.28319C11.6498 4.29328 10.7978 4.46273 9.99988 4.78326C9.23764 5.0757 8.56954 5.5684 8.06298 6.21163C7.51695 6.97246 7.11365 7.83025 6.8726 8.74349C6.65373 9.74571 6.51806 10.7665 6.46701 11.7953C6.41065 12.2841 6.38348 12.7765 6.38564 13.2699L3.53802 13.1389L7.5055 18.5848L12.0641 13.4667L9.61578 13.4046L9.66808 12.9627Z" fill="#A59EBC"/>
<path fill-rule="evenodd" clip-rule="evenodd" d="M7.4727 19.4268C7.22318 19.4105 6.99125 19.2815 6.84106 19.0753L2.87358 13.6294C2.6822 13.3667 2.65271 13.0199 2.79764 12.7363C2.94256 12.4526 3.23647 12.2819 3.5546 12.2965L5.57832 12.3896C5.59222 12.1607 5.61206 11.9323 5.63783 11.7046C5.69225 10.6384 5.8336 9.58048 6.06045 8.54173C6.06302 8.52996 6.06584 8.51826 6.06891 8.50663C6.33575 7.4957 6.78215 6.54631 7.38641 5.70435C7.39345 5.69454 7.4007 5.68489 7.40817 5.67541C8.00332 4.91967 8.78777 4.3405 9.6827 3.99593C10.5716 3.63968 11.5206 3.4513 12.4838 3.44006C12.493 3.43995 12.5023 3.44 12.5116 3.44021C13.472 3.4616 14.4319 3.53272 15.3873 3.65329C16.101 3.73045 16.819 3.73222 17.5298 3.65854C17.9206 3.61804 18.2926 3.86219 18.4208 4.24329C18.549 4.62438 18.3981 5.03774 18.0594 5.23327L18.0203 5.25583C17.9307 5.30758 17.8319 5.34151 17.7289 5.35586C17.1317 5.43909 16.5407 5.55852 15.9591 5.71352L15.9556 5.71445C15.0519 5.95091 14.1783 6.28673 13.3504 6.71599L13.3346 6.72398C12.6349 7.06732 12.0272 7.57194 11.5588 8.19806C11.3161 8.57295 11.1289 8.98248 11.0029 9.41401C10.9951 9.44086 10.9859 9.46725 10.9754 9.4931C10.9654 9.51783 10.9501 9.55432 10.9301 9.59329C10.9143 9.64361 10.8903 9.72191 10.8532 9.84405C10.8348 9.90475 10.8001 10.0881 10.7585 10.4024C10.7199 10.6947 10.6821 11.0457 10.6471 11.4017C10.6095 11.7847 10.573 12.199 10.5442 12.5269C10.5425 12.5466 10.5408 12.566 10.5391 12.5851L12.0638 12.6238C12.3907 12.6321 12.6873 12.8339 12.8217 13.1396C12.9561 13.4453 12.9033 13.798 12.6869 14.041L8.12826 19.1591C7.96293 19.3447 7.72223 19.443 7.4727 19.4268ZM8.84173 12.8471C8.8529 12.7409 8.86825 12.5646 8.88786 12.3393C8.91471 12.031 8.94955 11.6309 8.9926 11.1928C9.02829 10.8296 9.06829 10.457 9.11051 10.1374C9.14982 9.83973 9.19883 9.52296 9.26296 9.31145C9.30424 9.17528 9.33207 9.08468 9.35116 9.02445C9.36062 8.99462 9.36942 8.96754 9.37755 8.94395C9.38369 8.92612 9.39743 8.88656 9.4169 8.8437L9.41793 8.84143C9.42125 8.83409 9.42713 8.82106 9.43597 8.80389C9.60945 8.24229 9.85967 7.70952 10.1795 7.22088C10.1881 7.20772 10.1971 7.19483 10.2065 7.18222C10.8285 6.34236 11.6387 5.66568 12.5724 5.20586C12.6205 5.18093 12.6688 5.15629 12.7173 5.13192C12.6552 5.13006 12.5931 5.12842 12.5309 5.127C11.7716 5.13753 11.0233 5.28717 10.3223 5.56879L10.3106 5.57339C9.68898 5.81186 9.14352 6.21221 8.72823 6.73447C8.2493 7.40565 7.89444 8.16058 7.68027 8.96372C7.47363 9.9147 7.34544 10.8831 7.29701 11.859C7.29609 11.8775 7.29457 11.8959 7.29246 11.9142C7.23997 12.3694 7.21467 12.828 7.21668 13.2875C7.21768 13.5148 7.1282 13.7305 6.96852 13.8859C6.80885 14.0412 6.59249 14.123 6.36849 14.1127L5.23017 14.0603L7.55664 17.2537L10.2201 14.2634L9.61554 14.248C9.37784 14.242 9.15151 14.133 8.99373 13.9487C8.83595 13.7644 8.76182 13.5223 8.79006 13.2837L8.84173 12.8471ZM9.73626 8.47894C9.72333 8.48707 9.70706 8.49771 9.68975 8.50998C9.70727 8.49736 9.72308 8.48707 9.73626 8.47894ZM10.6043 9.93906C10.6085 9.93669 10.6131 9.93398 10.6182 9.93093C10.5969 9.94411 10.5877 9.94863 10.6043 9.93906Z" fill="#A59EBC"/>
</svg>
