<svg width="29" height="30" viewBox="0 0 29 30" fill="none" xmlns="http://www.w3.org/2000/svg">
<path fill-rule="evenodd" clip-rule="evenodd" d="M18.8031 16.2408C18.1746 16.2623 15.0402 16.4695 14.2965 16.3537C13.5529 16.2378 13.9004 16.2845 13.7168 16.2386C13.0108 16.136 12.3264 15.9306 11.6854 15.6291C10.617 15.0486 9.70645 14.2242 9.02654 13.2219C8.26589 12.1522 7.62651 11.0007 7.11966 9.78748C6.79246 9.01414 6.51255 8.22089 6.28143 7.41198L6.24467 7.36495C6.49133 8.35951 6.63199 9.37958 6.66435 10.4085C6.68175 11.6481 6.76313 12.8843 6.90816 14.1124C7.08079 15.2431 7.45986 16.3281 8.02686 17.3142C8.55049 18.2589 9.31911 19.0432 10.2551 19.5882C11.3525 20.1633 12.5506 20.5334 13.7914 20.6808C15.1446 20.7828 16.5069 20.7723 17.8641 20.6495C18.5147 20.6332 19.1648 20.578 19.8107 20.4842L20.1641 24.2388L26.5668 18.0373L19.0216 13.0091L19.3916 16.2279L18.8031 16.2408Z" fill="#A59EBC"/>
<path fill-rule="evenodd" clip-rule="evenodd" d="M27.6759 17.9249C27.7006 18.2548 27.5743 18.5824 27.332 18.8171L20.9292 25.0186C20.6204 25.3178 20.1716 25.4203 19.7733 25.2828C19.375 25.1452 19.0972 24.7917 19.0577 24.3722L18.8065 21.704C18.5041 21.728 18.2012 21.7441 17.8982 21.7523C16.4914 21.8776 15.0795 21.8875 13.6769 21.7818C13.661 21.7806 13.6451 21.7791 13.6293 21.7772C12.2558 21.6141 10.9298 21.2043 9.71543 20.568C9.70128 20.5606 9.6873 20.5528 9.67351 20.5448C8.57376 19.9045 7.67041 18.9836 7.05402 17.8748C6.42344 16.7761 6.0017 15.5675 5.80939 14.3079C5.80754 14.2958 5.8059 14.2836 5.80446 14.2714C5.65541 13.0093 5.57161 11.7388 5.55339 10.4649C5.52289 9.51581 5.39282 8.57488 5.16527 7.65735C5.04015 7.15286 5.2914 6.62045 5.767 6.38227C6.24259 6.14409 6.81193 6.26555 7.13051 6.67316L7.16727 6.72019C7.25159 6.82807 7.31426 6.95131 7.35203 7.08348C7.57117 7.8505 7.83659 8.60269 8.14687 9.33602L8.14874 9.34045C8.62513 10.4807 9.22611 11.5631 9.94109 12.5686L9.95447 12.5879C10.5332 13.4411 11.3063 14.1442 12.2129 14.6424C12.7488 14.8911 13.3198 15.0609 13.9083 15.1464C13.9449 15.1517 13.9812 15.1589 14.017 15.1678C14.0512 15.1764 14.1018 15.1897 14.1566 15.2087C14.2254 15.2201 14.3324 15.2372 14.4993 15.2632C14.5822 15.2761 14.8288 15.2878 15.2482 15.2843C15.6381 15.281 16.105 15.2658 16.5778 15.246C17.0864 15.2247 17.6359 15.196 18.0707 15.1733C18.0969 15.172 18.1226 15.1706 18.1479 15.1693L17.9175 13.1648C17.8681 12.735 18.0779 12.3093 18.4535 12.0769C18.8292 11.8445 19.301 11.8486 19.6592 12.0873L27.2044 17.1155C27.4781 17.2978 27.6512 17.595 27.6759 17.9249ZM18.8041 17.3446C18.6629 17.3495 18.4291 17.3619 18.1304 17.3778C17.7216 17.3994 17.191 17.4276 16.6092 17.4519C16.1268 17.4721 15.6313 17.4884 15.2048 17.4921C14.8077 17.4954 14.3837 17.4896 14.0948 17.4446C13.9088 17.4157 13.7849 17.3959 13.7025 17.382C13.6617 17.3751 13.6246 17.3686 13.5922 17.3623C13.5677 17.3575 13.5134 17.3468 13.4536 17.3292L13.4504 17.3283C13.4402 17.3253 13.4221 17.32 13.3979 17.3116C12.6303 17.1879 11.8862 16.9583 11.1871 16.6294C11.1683 16.6205 11.1497 16.6111 11.1315 16.6012C9.91659 15.9412 8.88077 15.0046 8.10626 13.8662C8.06472 13.8077 8.02353 13.749 7.98268 13.6901C7.99169 13.7718 8.001 13.8534 8.01059 13.9351C8.16438 14.9279 8.49837 15.8805 8.99656 16.747L9.00473 16.7615C9.43174 17.5318 10.0568 18.1725 10.8175 18.6202C11.785 19.1239 12.8394 19.4496 13.931 19.5821C15.2149 19.6774 16.5072 19.6668 17.7946 19.5503C17.8189 19.5481 17.8433 19.5467 17.8677 19.5461C18.4737 19.5309 19.0791 19.4795 19.6807 19.3922C19.9782 19.349 20.2773 19.4264 20.5103 19.607C20.7432 19.7875 20.8902 20.0558 20.918 20.3512L21.0593 21.852L24.8138 18.2156L20.4053 15.2777L20.4967 16.0726C20.5326 16.3851 20.4316 16.7017 20.2192 16.9423C20.0068 17.183 19.7034 17.3248 19.3855 17.3318L18.8041 17.3446ZM12.9169 16.9781C12.9299 16.9935 12.9469 17.0129 12.9661 17.0333C12.9464 17.0127 12.93 16.9939 12.9169 16.9781ZM14.6696 15.5717C14.6657 15.5668 14.6613 15.5612 14.6564 15.5551C14.6776 15.5805 14.6852 15.5917 14.6696 15.5717Z" fill="#A59EBC"/>
</svg>
