<svg width="28" height="30" viewBox="0 0 28 30" fill="none" xmlns="http://www.w3.org/2000/svg">
<path fill-rule="evenodd" clip-rule="evenodd" d="M26.737 17.9828C26.7604 18.3128 26.6327 18.6399 26.3893 18.8737L19.9607 25.0491C19.6505 25.3469 19.2013 25.4477 18.8035 25.3084C18.4058 25.1692 18.1294 24.8145 18.0917 24.3949L17.8515 21.7255C17.5489 21.7482 17.246 21.7631 16.9429 21.7701C15.5355 21.8895 14.1235 21.8936 12.7212 21.7821C12.7054 21.7809 12.6895 21.7793 12.6737 21.7773C11.3008 21.6085 9.97642 21.1932 8.76461 20.5518C8.75049 20.5443 8.73654 20.5366 8.72278 20.5285C7.62562 19.8836 6.72602 18.9589 6.11418 17.8475C5.48811 16.7461 5.07134 15.5357 4.88423 14.2753C4.88243 14.2631 4.88083 14.251 4.87944 14.2388C4.7356 12.976 4.65705 11.705 4.64409 10.431C4.61751 9.48173 4.49133 8.54021 4.26755 7.62169C4.14451 7.11665 4.39797 6.58526 4.87458 6.34903C5.35119 6.11281 5.92005 6.23662 6.23697 6.64556L6.27354 6.69275C6.35741 6.80098 6.41958 6.92449 6.4568 7.05683C6.67279 7.8248 6.93511 8.57812 7.24237 9.31277L7.24423 9.31722C7.71594 10.4595 8.31247 11.5445 9.02333 12.5529L9.03664 12.5723C9.6119 13.4279 10.3822 14.1343 11.2867 14.6362C11.8216 14.8872 12.3919 15.0593 12.9801 15.1473C13.0167 15.1527 13.053 15.16 13.0887 15.1691C13.1229 15.1778 13.1735 15.1914 13.2282 15.2106C13.297 15.2223 13.4039 15.2398 13.5706 15.2665C13.6535 15.2798 13.9001 15.2925 14.3195 15.2907C14.7095 15.289 15.1765 15.2758 15.6493 15.2579C16.1581 15.2387 16.7077 15.2123 17.1426 15.1914C17.1688 15.1902 17.1946 15.1889 17.2199 15.1877L16.9977 13.1822C16.9501 12.7521 17.1616 12.3273 17.5383 12.0964C17.9149 11.8655 18.3867 11.8715 18.744 12.1118L26.2688 17.1714C26.5417 17.3549 26.7136 17.6528 26.737 17.9828ZM17.8671 17.3658C17.7258 17.3702 17.492 17.3816 17.1932 17.3962C16.7843 17.4162 16.2536 17.4421 15.6716 17.4641C15.1891 17.4823 14.6936 17.4966 14.267 17.4984C13.8698 17.5002 13.4458 17.4926 13.1571 17.4464C12.9712 17.4167 12.8474 17.3964 12.7651 17.3821C12.7243 17.3751 12.6872 17.3684 12.6548 17.362C12.6304 17.3571 12.5761 17.3462 12.5164 17.3283L12.5132 17.3274C12.503 17.3244 12.4849 17.319 12.4608 17.3105C11.6936 17.1836 10.9504 16.9509 10.2526 16.6191C10.2339 16.6101 10.2154 16.6007 10.1971 16.5907C8.9849 15.9256 7.95289 14.9847 7.18304 13.8431C7.14175 13.7844 7.10079 13.7255 7.06019 13.6664C7.06886 13.7481 7.07783 13.8298 7.08709 13.9115C7.23678 14.905 7.56685 15.8591 8.06149 16.7277L8.0696 16.7422C8.49345 17.5143 9.11586 18.1576 9.87479 18.6085C10.8403 19.1162 11.8934 19.4463 12.9845 19.5833C14.2681 19.684 15.5604 19.6787 16.8484 19.5675C16.8727 19.5654 16.8971 19.5641 16.9216 19.5636C17.5276 19.5509 18.1333 19.502 18.7352 19.4171C19.033 19.3752 19.3318 19.4539 19.564 19.6354C19.7962 19.8169 19.9422 20.0858 19.9687 20.3813L20.1038 21.8828L23.8735 18.2617L19.4769 15.3055L19.565 16.1007C19.5996 16.4134 19.4973 16.7296 19.284 16.9694C19.0706 17.2092 18.7665 17.3497 18.4486 17.3554L17.8671 17.3658ZM11.9811 16.975C11.9941 16.9905 12.0109 17.0099 12.0301 17.0304C12.0104 17.0097 11.9941 16.9908 11.9811 16.975ZM13.7397 15.5758C13.7359 15.5708 13.7315 15.5652 13.7266 15.5591C13.7477 15.5846 13.7552 15.5958 13.7397 15.5758Z" fill="#A59EBC"/>
</svg>
