<svg width="78" height="55" viewBox="0 0 78 55" fill="none" xmlns="http://www.w3.org/2000/svg">
<path d="M2.78834 33.307C2.78512 33.3427 2.78512 33.3785 2.78834 33.4142C2.72731 34.0519 2.72731 34.6939 2.78834 35.3316C3.59223 38.5948 6.84949 41.8819 12.316 41.8819H36.2601L15.603 45.5619C15.5241 45.5761 15.4488 45.606 15.3817 45.65C15.3146 45.6939 15.2571 45.751 15.2126 45.8177C15.1681 45.8845 15.1376 45.9595 15.1228 46.0383C15.108 46.1172 15.1093 46.1982 15.1266 46.2765L16.7463 53.5353C16.7766 53.6697 16.8524 53.7894 16.961 53.8741C17.0696 53.9587 17.2041 54.0032 17.3418 53.9998H17.449L76.7466 43.4658C76.8255 43.4517 76.9008 43.4217 76.9679 43.3778C77.035 43.3338 77.0925 43.2767 77.137 43.21C77.1814 43.1433 77.212 43.0682 77.2268 42.9894C77.2415 42.9106 77.2402 42.8296 77.2229 42.7513L75.5854 35.4805C75.5548 35.3541 75.4837 35.2411 75.3829 35.1589C75.3829 35.1589 75.3829 35.1232 75.3829 35.1053L67.6417 8.57089C67.6046 8.44319 67.5258 8.3316 67.4179 8.2539C67.31 8.1762 67.1791 8.13685 67.0462 8.14214H58.7096L59.305 8.01709C59.7457 7.93026 60.1649 7.75729 60.5385 7.5081C60.9121 7.25891 61.2329 6.93841 61.4824 6.56498C61.7319 6.19155 61.9053 5.77253 61.9925 5.33197C62.0797 4.8914 62.0791 4.43795 61.9906 3.99762L61.9371 3.73561C61.7521 2.84708 61.2231 2.06783 60.4655 1.56801C59.708 1.06818 58.7834 0.888386 57.8938 1.06788L26.9826 7.25488C26.6006 7.23813 26.2194 7.301 25.8631 7.43948C25.3184 7.66614 24.7875 7.92463 24.2731 8.2136L11.3037 8.38033C10.7591 7.70565 10.0694 7.16251 9.2858 6.79135C8.50224 6.42019 7.64504 6.23057 6.77803 6.23662C5.6195 6.24876 4.49429 6.62591 3.56246 7.31443C2.11545 8.32079 0.960225 10.0298 1.00191 10.5717C0.999364 10.6034 0.999364 10.6353 1.00191 10.667C2.53228 16.8421 2.91934 28.0966 2.78834 33.307ZM75.9129 42.388L17.7884 52.7195L16.4248 46.6278L19.8488 46.0323L20.5871 49.3372C20.6174 49.4716 20.6933 49.5913 20.8018 49.6759C20.9104 49.7606 21.045 49.8051 21.1826 49.8017H21.3136C21.4675 49.7675 21.6015 49.6737 21.6863 49.5409C21.7712 49.4081 21.7999 49.2471 21.7662 49.0931L21.0397 45.8358L24.5173 45.2404L25.2557 48.5452C25.2859 48.6796 25.3618 48.7993 25.4704 48.884C25.5789 48.9686 25.7135 49.0131 25.8512 49.0097H25.9822C26.136 48.9755 26.27 48.8818 26.3549 48.7489C26.4397 48.6161 26.4684 48.4551 26.4347 48.3011L25.7082 45.0438L29.1858 44.4484L29.9242 47.7533C29.9545 47.8876 30.0303 48.0073 30.1389 48.092C30.2475 48.1767 30.382 48.2211 30.5197 48.2177H30.6507C30.8046 48.1836 30.9386 48.0898 31.0234 47.9569C31.1082 47.8241 31.137 47.6631 31.1033 47.5091L30.3232 44.1744L33.8008 43.579L34.5392 46.8839C34.5694 47.0182 34.6453 47.1379 34.7539 47.2226C34.8624 47.3073 34.997 47.3517 35.1346 47.3483H35.2656C35.3496 47.3307 35.4287 47.295 35.4976 47.2439C35.5666 47.1928 35.6236 47.1274 35.6649 47.0522C35.7062 46.977 35.7307 46.8937 35.7368 46.8081C35.7429 46.7226 35.7305 46.6367 35.7003 46.5564L34.9739 43.2991L38.4514 42.7036L39.1898 46.0085C39.2201 46.1428 39.296 46.2625 39.4045 46.3472C39.5131 46.4319 39.6477 46.4764 39.7853 46.473H39.9163C40.0702 46.4388 40.2042 46.345 40.289 46.2122C40.3739 46.0794 40.4026 45.9183 40.3689 45.7644L39.6424 42.5071L43.12 41.9116L43.8584 45.2165C43.8886 45.3509 43.9645 45.4706 44.0731 45.5552C44.1816 45.6399 44.3162 45.6844 44.4539 45.681H44.5849C44.7387 45.6468 44.8727 45.553 44.9576 45.4202C45.0424 45.2874 45.0711 45.1263 45.0374 44.9724L44.3109 41.7151L47.7885 41.1197L48.5269 44.4245C48.5572 44.5589 48.633 44.6786 48.7416 44.7633C48.8502 44.8479 48.9847 44.8924 49.1224 44.889H49.2534C49.4073 44.8548 49.5413 44.7611 49.6261 44.6282C49.7109 44.4954 49.7397 44.3344 49.706 44.1804L48.9795 40.9231L52.4571 40.3277L53.1955 43.6326C53.2257 43.7669 53.3016 43.8866 53.4101 43.9713C53.5187 44.056 53.6533 44.1004 53.7909 44.097H53.9219C54.0758 44.0629 54.2098 43.9691 54.2947 43.8363C54.3795 43.7034 54.4082 43.5424 54.3745 43.3884L53.5766 40.0061L57.0541 39.4106L57.7925 42.7155C57.8228 42.8499 57.8987 42.9696 58.0072 43.0542C58.1158 43.1389 58.2504 43.1834 58.388 43.18H58.519C58.6729 43.1458 58.8069 43.052 58.8917 42.9192C58.9766 42.7864 59.0053 42.6253 58.9716 42.4714L58.2272 39.1963L61.7048 38.6008L62.4432 41.9057C62.4735 42.04 62.5493 42.1597 62.6579 42.2444C62.7665 42.3291 62.901 42.3735 63.0387 42.3702H63.1697C63.3235 42.336 63.4576 42.2422 63.5424 42.1094C63.6272 41.9765 63.656 41.8155 63.6223 41.6615L62.8958 38.4043L66.3734 37.8088L67.0998 41.0601C67.1301 41.1944 67.206 41.3141 67.3145 41.3988C67.4231 41.4835 67.5577 41.5279 67.6953 41.5246H67.8263C67.9802 41.4904 68.1142 41.3966 68.199 41.2638C68.2839 41.131 68.3126 40.9699 68.2789 40.816L67.5524 37.5587L71.5064 36.856L72.2209 40.0418C72.2512 40.1762 72.3271 40.2959 72.4356 40.3805C72.5442 40.4652 72.6788 40.5097 72.8164 40.5063H72.9474C73.1013 40.4721 73.2353 40.3784 73.3201 40.2455C73.405 40.1127 73.4337 39.9517 73.4 39.7977L72.6973 36.6595L74.5909 36.3261L75.9129 42.388ZM58.1677 2.23501C58.7478 2.11875 59.3503 2.23619 59.8443 2.56179C60.3383 2.8874 60.6838 3.39485 60.8056 3.9738L60.8592 4.23581C60.9176 4.52062 60.9187 4.81419 60.8624 5.09942C60.8062 5.38465 60.6938 5.65584 60.5317 5.89719C60.3684 6.1427 60.158 6.35334 59.9127 6.51689C59.6674 6.68045 59.392 6.79366 59.1026 6.84996L29.6979 12.7392C30.0205 12.1542 30.1866 11.4958 30.1803 10.8277L51.6889 6.5284C51.7671 6.51315 51.8415 6.48265 51.9079 6.43864C51.9743 6.39462 52.0314 6.33796 52.076 6.27188C52.1205 6.2058 52.1515 6.1316 52.1674 6.05352C52.1832 5.97544 52.1835 5.895 52.1683 5.8168C52.153 5.73861 52.1225 5.66418 52.0785 5.59776C52.0345 5.53135 51.9778 5.47426 51.9117 5.42975C51.8457 5.38524 51.7715 5.35418 51.6934 5.33834C51.6153 5.3225 51.5349 5.3222 51.4567 5.33745L29.9897 9.67252C29.7782 9.06233 29.4131 8.51685 28.9298 8.08855L58.1677 2.23501ZM26.2561 8.56493C26.5108 8.47041 26.7837 8.43522 27.054 8.46205C27.3244 8.48888 27.5851 8.57701 27.8162 8.71975C28.1201 8.90201 28.3829 9.14536 28.5879 9.43442C28.7929 9.72347 28.9357 10.0519 29.0072 10.399C29.07 10.7507 29.0606 11.1116 28.9798 11.4596C28.8989 11.8076 28.7482 12.1356 28.5368 12.4236C28.3828 12.6524 28.1779 12.8424 27.9382 12.9787C27.6986 13.1151 27.4306 13.1941 27.1553 13.2097C25.6011 13.2692 21.8436 12.6916 19.7594 12.3462C21.5518 11.1731 24.821 9.12468 26.2561 8.56493ZM22.1652 9.44028C20.0869 10.6967 18.0504 12.0544 17.9075 12.1437C17.8091 12.2187 17.7339 12.32 17.6907 12.436C17.6475 12.5519 17.638 12.6777 17.6634 12.7988C17.6863 12.9124 17.7419 13.0169 17.8233 13.0994C17.9048 13.1819 18.0085 13.2389 18.1219 13.2632C18.3898 13.3109 24.4161 14.3947 26.9111 14.3947H27.2029C27.3653 14.387 27.5267 14.365 27.6852 14.3291H27.7567H27.8758L52.7786 9.33905H66.5996L74.1562 35.1589L42.9592 40.7028H12.316C7.49856 40.7028 4.64027 37.8624 3.94952 35.0577C3.92764 34.7425 3.92764 34.4261 3.94952 34.1109C3.96055 34.0916 3.97049 34.0717 3.97929 34.0513C4.16249 33.3238 4.49542 32.6424 4.95681 32.0508C5.41821 31.4592 5.99793 30.9703 6.65894 30.6154L8.14763 38.1661C8.17547 38.3026 8.25031 38.4251 8.35911 38.5121C8.46792 38.5991 8.6038 38.6453 8.74311 38.6425C11.6669 38.6425 15.0075 36.856 15.5315 33.9442C15.522 33.7954 15.522 33.6463 15.5315 33.4976L11.6729 9.57129L22.1652 9.44028ZM7.76653 30.1569C8.25483 30.0191 8.75975 29.949 9.26713 29.9485C11.7324 29.9485 13.9178 31.5682 14.3525 33.7119C13.9714 35.8556 11.4883 37.2371 9.21949 37.4098L7.76653 30.1569ZM4.24726 8.29101C4.97898 7.74407 5.8646 7.44192 6.77803 7.42757C7.48184 7.42567 8.17665 7.58582 8.80862 7.8956C9.44058 8.20539 9.99275 8.65651 10.4224 9.214C10.4175 9.25754 10.4175 9.30147 10.4224 9.345L13.8344 30.4785C13.1485 29.8609 12.3434 29.3903 11.4687 29.0956C10.594 28.8008 9.66828 28.6882 8.74845 28.7646C7.82863 28.8411 6.93417 29.1049 6.12013 29.5399C5.30609 29.975 4.58969 30.572 4.01502 31.2943C4.01502 25.5658 3.54459 16.1394 2.22859 10.5538C2.72734 9.6606 3.41652 8.88807 4.24726 8.29101Z" fill="#F43072" stroke="#F43072" stroke-width="0.5"/>
<path d="M28.5426 25.3456H30.2516C30.4562 25.3413 30.6593 25.3799 30.848 25.4588C31.0367 25.5378 31.2068 25.6554 31.3473 25.8041C31.5658 26.1662 31.6982 26.5737 31.7344 26.9951L30.5434 27.6382C30.3244 27.7224 30.136 27.8711 30.0031 28.0646C29.8702 28.2581 29.7991 28.4872 29.7991 28.722C29.7991 28.9567 29.8702 29.1859 30.0031 29.3793C30.136 29.5728 30.3244 29.7215 30.5434 29.8057L31.1032 30.1035C31.5186 30.3026 31.9734 30.406 32.4341 30.406C32.8947 30.406 33.3495 30.3026 33.765 30.1035L35.0274 29.4306C35.5887 29.1823 36.2152 29.1217 36.8138 29.2579L38.6002 29.639C38.7836 29.677 38.9492 29.7748 39.0709 29.9171C39.1927 30.0593 39.2638 30.238 39.2731 30.425V30.5798C39.2731 31.0536 39.4613 31.508 39.7963 31.843C40.1314 32.1781 40.5858 32.3663 41.0595 32.3663H42.441C42.9148 32.3663 43.3692 32.1781 43.7042 31.843C44.0393 31.508 44.2275 31.0536 44.2275 30.5798V30.425C44.2393 30.2326 44.3157 30.0497 44.4443 29.906C44.5729 29.7623 44.7461 29.6661 44.9361 29.633L46.7225 29.246C47.3102 29.1178 47.9235 29.1804 48.4732 29.4246L49.7416 30.0975C50.157 30.2967 50.6118 30.4 51.0725 30.4C51.5332 30.4 51.988 30.2967 52.4034 30.0975L52.9631 29.7998C53.1822 29.7155 53.3706 29.5668 53.5034 29.3734C53.6363 29.1799 53.7074 28.9507 53.7074 28.716C53.7074 28.4813 53.6363 28.2521 53.5034 28.0586C53.3706 27.8652 53.1822 27.7165 52.9631 27.6322L51.7007 26.9593C51.534 26.87 51.4625 26.7688 51.4566 26.7211C51.4506 26.6735 51.4566 26.6854 51.5042 26.6556C52.7666 25.429 53.1715 25.3635 53.243 25.3635H55.4463C55.6722 25.3911 55.9014 25.3705 56.1188 25.3029C56.3362 25.2354 56.5367 25.1224 56.7072 24.9715C56.8776 24.8207 57.0141 24.6353 57.1076 24.4278C57.2011 24.2202 57.2494 23.9952 57.2494 23.7676C57.2494 23.54 57.2011 23.3149 57.1076 23.1074C57.0141 22.8998 56.8776 22.7145 56.7072 22.5636C56.5367 22.4128 56.3362 22.2998 56.1188 22.2323C55.9014 22.1647 55.6722 22.1441 55.4463 22.1717H53.2251C53.0207 22.1757 52.8176 22.1369 52.629 22.058C52.4403 21.979 52.2702 21.8616 52.1295 21.7132C51.9112 21.351 51.7788 20.9436 51.7424 20.5222L52.9334 19.8791C53.1524 19.7949 53.3408 19.6462 53.4737 19.4527C53.6065 19.2593 53.6777 19.0301 53.6777 18.7954C53.6777 18.5606 53.6065 18.3315 53.4737 18.138C53.3408 17.9445 53.1524 17.7958 52.9334 17.7116L52.3736 17.4138C51.9582 17.2147 51.5034 17.1113 51.0427 17.1113C50.582 17.1113 50.1272 17.2147 49.7118 17.4138L48.4613 18.0867C47.8999 18.335 47.2734 18.3956 46.6749 18.2594L44.8885 17.8783C44.7051 17.8403 44.5395 17.7425 44.4178 17.6002C44.296 17.458 44.2249 17.2793 44.2156 17.0923V16.9375C44.2156 16.4637 44.0274 16.0093 43.6923 15.6743C43.3573 15.3392 42.9029 15.151 42.4291 15.151H41.0476C40.5738 15.151 40.1195 15.3392 39.7844 15.6743C39.4494 16.0093 39.2612 16.4637 39.2612 16.9375V17.0923C39.2493 17.2847 39.173 17.4676 39.0444 17.6113C38.9158 17.755 38.7425 17.8512 38.5526 17.8843L36.7662 18.2713C36.1784 18.3982 35.5655 18.3357 35.0155 18.0927L33.753 17.4138C33.3375 17.2151 32.8828 17.112 32.4222 17.112C31.9615 17.112 31.5068 17.2151 31.0913 17.4138L30.5315 17.7116C30.3125 17.7958 30.1241 17.9445 29.9912 18.138C29.8583 18.3315 29.7872 18.5606 29.7872 18.7954C29.7872 19.0301 29.8583 19.2593 29.9912 19.4527C30.1241 19.6462 30.3125 19.7949 30.5315 19.8791L31.7999 20.552C31.9666 20.6413 32.0381 20.7426 32.044 20.7902C32.05 20.8378 32.044 20.8259 31.9964 20.8617C30.7221 22.0883 30.3171 22.1419 30.2516 22.1419H28.5426C28.3167 22.1143 28.0874 22.1349 27.8701 22.2025C27.6527 22.27 27.4522 22.383 27.2817 22.5339C27.1113 22.6847 26.9748 22.87 26.8813 23.0776C26.7878 23.2852 26.7395 23.5102 26.7395 23.7378C26.7395 23.9654 26.7878 24.1905 26.8813 24.398C26.9748 24.6056 27.1113 24.7909 27.2817 24.9418C27.4522 25.0926 27.6527 25.2056 27.8701 25.2731C28.0874 25.3407 28.3167 25.3613 28.5426 25.3337V25.3456ZM28.5426 23.3448H30.2516C31.0317 23.3448 31.9845 22.523 32.836 21.7013C32.9802 21.5658 33.0899 21.3978 33.1562 21.2114C33.2225 21.025 33.2434 20.8255 33.2171 20.6294C33.1728 20.3868 33.0714 20.1581 32.9213 19.9624C32.7711 19.7667 32.5766 19.6096 32.3537 19.504L31.0853 18.8311L31.0317 18.7954L31.0853 18.7596L31.6451 18.4619C31.8883 18.3558 32.1508 18.3011 32.4162 18.3011C32.6816 18.3011 32.9441 18.3558 33.1873 18.4619L34.4557 19.1645C35.2668 19.5482 36.1838 19.6469 37.0579 19.4444L38.7729 19.0752C39.2375 18.9937 39.6592 18.753 39.9656 18.3944C40.272 18.0358 40.444 17.5817 40.4522 17.1102V16.9553C40.4522 16.7974 40.5149 16.6459 40.6266 16.5343C40.7382 16.4226 40.8897 16.3599 41.0476 16.3599H42.4291C42.5871 16.3599 42.7385 16.4226 42.8502 16.5343C42.9619 16.6459 43.0246 16.7974 43.0246 16.9553V17.1102C43.0305 17.5771 43.1981 18.0275 43.4989 18.3848C43.7997 18.742 44.215 18.9839 44.6741 19.0693L46.3831 19.4325C47.267 19.6505 48.1991 19.5558 49.0211 19.1645L50.2894 18.4917C50.5327 18.3856 50.7952 18.3308 51.0606 18.3308C51.326 18.3308 51.5885 18.3856 51.8317 18.4917L52.3915 18.7894L52.4451 18.8251L52.3915 18.8609L51.1291 19.5337C51.0037 19.6003 50.8931 19.6916 50.804 19.8021C50.715 19.9127 50.6493 20.0402 50.611 20.1769C50.3847 20.945 50.9206 22.005 51.0933 22.3087C51.3401 22.6382 51.6628 22.9034 52.0339 23.0817C52.405 23.26 52.8136 23.3461 53.2251 23.3329H55.4284C55.7797 23.3329 56.0239 23.5473 56.0239 23.7378C56.0239 23.9284 55.7797 24.1427 55.4284 24.1427H53.2251C52.4391 24.1427 51.4863 24.9645 50.6408 25.7863C50.4966 25.9218 50.3869 26.0897 50.3206 26.2761C50.2543 26.4625 50.2334 26.662 50.2597 26.8581C50.304 27.1008 50.4054 27.3294 50.5555 27.5251C50.7056 27.7208 50.9002 27.8779 51.1231 27.9836L52.3915 28.6922L52.4451 28.7279L52.3915 28.7636L51.8317 29.0614C51.5885 29.1674 51.326 29.2222 51.0606 29.2222C50.7952 29.2222 50.5327 29.1674 50.2894 29.0614L49.0211 28.3885C48.2131 27.9947 47.294 27.8917 46.4188 28.0967L44.7039 28.4659C44.2393 28.5474 43.8176 28.7882 43.5112 29.1467C43.2048 29.5053 43.0327 29.9594 43.0246 30.431V30.5858C43.0246 30.7437 42.9619 30.8952 42.8502 31.0069C42.7385 31.1185 42.5871 31.1813 42.4291 31.1813H41.0476C40.8897 31.1813 40.7382 31.1185 40.6266 31.0069C40.5149 30.8952 40.4522 30.7437 40.4522 30.5858V30.431C40.4463 29.964 40.2786 29.5136 39.9779 29.1563C39.6771 28.7991 39.2618 28.5572 38.8027 28.4718L37.0996 28.0967C36.8086 28.0177 36.508 27.9796 36.2064 27.9836C35.6008 27.9762 35.0017 28.1086 34.4557 28.3706L33.1933 29.0435C32.95 29.1496 32.6875 29.2043 32.4222 29.2043C32.1568 29.2043 31.8943 29.1496 31.651 29.0435L31.0913 28.7458L31.0317 28.6922L31.0853 28.6565L32.3537 27.9836C32.4791 27.917 32.5897 27.8257 32.6787 27.7152C32.7678 27.6046 32.8334 27.4771 32.8717 27.3404C33.098 26.5663 32.5621 25.5123 32.3894 25.2086C32.1465 24.8706 31.8249 24.5969 31.4524 24.4111C31.0799 24.2254 30.6678 24.1333 30.2516 24.1427H28.5426C28.1913 24.1427 27.9471 23.9284 27.9471 23.7378C27.9471 23.5473 28.1913 23.3329 28.5426 23.3329V23.3448Z" fill="#F43072" stroke="#F43072" stroke-width="0.5"/>
<path d="M41.9888 26.6793C44.6684 26.6793 46.7526 25.393 46.7526 23.7555C46.7526 22.1179 44.6565 20.8317 41.9888 20.8317C39.3211 20.8317 37.225 22.1179 37.225 23.7555C37.225 25.393 39.3091 26.6793 41.9888 26.6793ZM41.9888 22.0167C44.1027 22.0167 45.5617 22.9337 45.5617 23.7495C45.5617 24.5653 44.0908 25.4824 41.9888 25.4824C39.8868 25.4824 38.4159 24.5653 38.4159 23.7495C38.4159 22.9337 39.8748 22.0167 41.9888 22.0167Z" fill="#F43072" stroke="#F43072" stroke-width="0.5"/>
</svg>
