<svg width="83" height="40" viewBox="0 0 83 40" fill="none" xmlns="http://www.w3.org/2000/svg">
<path d="M80.4013 2.42873C77.1605 -0.809578 71.8896 -0.809578 68.6487 2.42873C65.761 5.31468 65.4525 9.81033 67.7102 13.0486L55.7109 25.0479C52.8241 22.8891 48.851 22.8504 45.9247 24.9336L35.3297 14.3352C37.6561 11.0909 37.3717 6.53764 34.4608 3.62505C31.219 0.387601 25.9482 0.387601 22.7073 3.62505C19.7913 6.54194 19.5085 11.0978 21.841 14.3429L13.1479 23.0352C9.90186 20.7061 5.34605 20.988 2.43002 23.9015C-0.810008 27.1424 -0.810008 32.4132 2.43002 35.6532C5.67349 38.8916 10.9418 38.8916 14.1801 35.6532C17.0772 32.7578 17.3763 28.2424 15.0971 25.0015L23.8082 16.2904C26.6675 18.3006 30.5083 18.2989 33.3642 16.287L43.9695 26.8923C41.6662 30.1349 41.9584 34.6675 44.8641 37.5706C48.1067 40.8098 53.3741 40.8098 56.615 37.5706C59.4718 34.7148 59.8061 30.2801 57.6266 27.0487L69.6517 15.0227C72.8994 17.3784 77.4759 17.1034 80.3988 14.1805C83.6388 10.9405 83.6388 5.66791 80.4013 2.42873ZM12.1604 33.6302C10.0351 35.7564 6.57761 35.7564 4.45483 33.6302C2.32689 31.5065 2.32689 28.0473 4.45483 25.9203C6.57761 23.7983 10.0359 23.7932 12.1604 25.9203C14.2892 28.0456 14.2866 31.5065 12.1604 33.6302ZM27.5433 13.2601L24.2207 9.94355L25.509 8.65613L27.5441 10.6861L32.6775 5.56134L33.9666 6.84704L27.5433 13.2601ZM54.5945 35.5493C52.4692 37.6746 49.01 37.6746 46.8864 35.5493C44.7593 33.4248 44.7593 29.9647 46.8864 27.8394C49.01 25.714 52.4683 25.7123 54.5945 27.8394C56.7233 29.963 56.7208 33.4248 54.5945 35.5493ZM78.3783 12.1566C76.2529 14.2828 72.7954 14.2828 70.6718 12.1566C68.543 10.0338 68.543 6.57288 70.6718 4.44838C72.7954 2.32388 76.2529 2.32216 78.3783 4.44838C80.507 6.57116 80.5045 10.0338 78.3783 12.1566Z" fill="#F43072"/>
</svg>
