<svg width="55" height="55" viewBox="0 0 55 55" fill="none" xmlns="http://www.w3.org/2000/svg">
<path d="M50.0078 20.5369L53.9814 2.32453C54.0918 1.9934 53.9814 1.55189 53.6503 1.33113C53.4295 1.11038 52.988 1 52.6569 1L34.4445 4.9736C34.4445 4.9736 34.1134 5.08398 33.8926 5.30474L17.5567 21.6407C12.9209 21.4199 8.39537 23.1859 5.19441 26.4973C4.7529 26.9388 4.7529 27.6011 5.19441 28.0426L27.0492 49.8974C27.7115 50.5596 28.3738 50.1181 28.5945 49.8974C31.6851 46.8068 33.4511 42.6124 33.4511 38.1973C33.4511 37.9766 33.4511 37.7558 33.4511 37.5351L49.8974 21.0888C50.0078 20.7576 50.0078 20.5369 50.0078 20.5369ZM7.51235 27.2699C9.71991 25.3935 12.4794 24.1793 15.2388 23.8482L9.60953 29.4775L7.51235 27.2699ZM15.018 34.7756L19.6539 30.1397C20.7577 29.036 22.6341 29.036 23.7379 30.1397L24.8417 31.2435C26.2766 32.6784 25.7247 34.6652 24.8417 35.3275L20.2058 39.9634L15.018 34.7756ZM27.7115 47.4691L25.5039 45.2615L31.1332 39.6322C30.8021 42.6124 29.5879 45.2615 27.7115 47.4691ZM23.9586 43.7162L21.7511 41.5087L26.387 36.8728C28.8153 34.4445 27.9322 31.0228 26.387 29.5879L25.2832 28.4841C24.1794 27.1595 20.7577 25.835 17.9982 28.4841L13.3624 33.1199L11.1548 30.9124L34.6653 7.51229L47.3587 20.2057L23.9586 43.7162ZM36.8728 6.62927L51.4427 3.53869L48.3521 18.1086L36.8728 6.62927Z" fill="#F43072" stroke="#F43072" stroke-width="0.5"/>
<path d="M2.87642 37.3143L6.40851 33.7822C6.85002 33.3407 6.85002 32.6784 6.40851 32.2369C5.967 31.7954 5.30474 31.7954 4.86322 32.2369L1.33113 35.769C0.889622 36.2105 0.889622 36.8728 1.33113 37.3143C1.88302 37.8662 2.65567 37.6454 2.87642 37.3143Z" fill="#F43072" stroke="#F43072" stroke-width="0.5"/>
<path d="M13.0311 40.4049L9.49898 43.937C9.05747 44.3785 9.05747 45.0407 9.49898 45.4822C9.71974 45.703 10.382 46.1445 11.0443 45.4822L14.5764 41.9502C15.0179 41.5086 15.0179 40.8464 14.5764 40.4049C14.1348 39.9634 13.4726 39.9634 13.0311 40.4049Z" fill="#F43072" stroke="#F43072" stroke-width="0.5"/>
<path d="M21.1993 48.5728L17.6672 52.1049C17.2257 52.5464 17.2257 53.2087 17.6672 53.6502C17.8879 53.871 18.5502 54.3125 19.2125 53.6502L22.7446 50.1181C23.1861 49.6766 23.1861 49.0143 22.7446 48.5728C22.3031 48.1313 21.6408 48.1313 21.1993 48.5728Z" fill="#F43072" stroke="#F43072" stroke-width="0.5"/>
</svg>
