<svg width="78" height="54" viewBox="0 0 78 54" fill="none" xmlns="http://www.w3.org/2000/svg">
<path fill-rule="evenodd" clip-rule="evenodd" d="M34.6473 20.3837C33.907 21.0164 33.005 21.4173 32.0488 21.5386C31.013 21.5915 29.9928 21.2628 29.1724 20.6118C28.1371 19.8989 26.9282 18.8152 25.483 17.8313C23.8899 16.7152 22.0979 15.9326 20.2095 15.5285C17.8253 15.046 15.3677 15.0971 13.0045 15.6782C10.5326 16.3093 8.25987 17.5809 6.40395 19.3713C4.57994 21.1824 3.19911 23.4103 2.37414 25.8733C1.53492 28.3214 1.29629 30.9438 1.67935 33.509C2.09876 36.1562 2.96895 38.7071 4.25009 41.0448C5.18263 42.7683 6.42508 44.2948 7.91165 45.5435C9.20946 46.6819 10.6662 47.6143 12.2333 48.3097C13.6966 48.9316 15.2302 49.3627 16.7981 49.593C17.5815 49.7938 18.4078 49.721 19.1465 49.3863C19.4096 49.2503 19.6416 49.0586 19.8272 48.8239C20.0128 48.5892 20.1479 48.3167 20.2234 48.0245C20.3613 47.3795 20.2571 46.7049 19.9316 46.1352C19.7537 45.8753 19.5232 45.6578 19.2557 45.4979C18.9883 45.3379 18.6903 45.2391 18.3822 45.2084C17.4057 45.0792 16.4363 44.8983 15.478 44.6666C14.1653 44.2848 12.9233 43.6825 11.8025 42.8842C10.4788 41.9418 9.35977 40.728 8.51612 39.3195C7.55768 37.6884 6.87635 35.902 6.50122 34.0366C6.11997 32.2934 6.08688 30.489 6.40395 28.7323C6.73297 27.1595 7.3895 25.6784 8.32853 24.3904C9.22402 23.0808 10.4162 22.0141 11.8025 21.282C13.3132 20.5397 14.9518 20.1109 16.6244 20.0201C18.0295 19.9266 19.4381 20.138 20.7584 20.6403L21.1753 20.8043H21.2448C21.7242 20.9968 27.6785 24.918 29.492 25.7308C31.3054 26.5435 26.9838 22.4156 28.5192 22.4726C29.9279 22.5652 31.3382 22.3212 32.6394 21.7597H32.6741H32.7158H32.7505H32.7853H32.827H32.8617H32.8964H32.9312H32.9659H33.0007H33.0354H33.0701H33.1049H33.1396H33.1744L33.223 21.7169L34.6473 20.3837Z" fill="#A43E88"/>
<path fill-rule="evenodd" clip-rule="evenodd" d="M12.7105 14.4108C15.2502 13.7862 17.8913 13.7313 20.4536 14.2499L20.467 14.2526C22.5151 14.6909 24.4591 15.5392 26.1878 16.749C26.9475 17.2666 27.6388 17.8058 28.251 18.2887C28.3125 18.3373 28.3731 18.3851 28.4326 18.4321C28.9816 18.8657 29.4473 19.2335 29.8758 19.5286C29.8993 19.5448 29.9223 19.5618 29.9447 19.5796C30.5145 20.0316 31.2206 20.2649 31.9405 20.2391C32.6394 20.1414 33.2973 19.844 33.8391 19.3809C34.3681 18.9288 35.1512 18.9943 35.6023 19.5286C36.0533 20.0629 36.0072 20.8702 35.4985 21.3464L34.0742 22.6796C34.0645 22.6887 34.0547 22.6975 34.0448 22.7062L33.9962 22.749C33.7671 22.9505 33.4757 23.0612 33.1743 23.0612H32.8853C32.0259 23.4061 31.1277 23.6311 30.2147 23.732C30.2162 23.7341 30.2177 23.7362 30.2192 23.7383C30.3516 23.9225 30.4904 24.1156 30.6105 24.2912C30.7492 24.4939 30.9172 24.7499 31.0307 24.9944C31.0809 25.1025 31.1783 25.3271 31.2036 25.6044C31.2316 25.9111 31.1725 26.5701 30.5443 26.9465C30.0886 27.2196 29.6363 27.1294 29.5088 27.1025C29.3161 27.0618 29.1348 26.9904 28.9869 26.924C27.9829 26.4741 25.9528 25.2322 24.213 24.1483C23.7675 23.8708 23.3327 23.5982 22.9285 23.3448L22.8424 23.2908C22.4707 23.0577 22.1274 22.8424 21.8255 22.6544C21.4995 22.4513 21.2281 22.2839 21.0257 22.1625C20.9547 22.12 20.9002 22.0881 20.8599 22.0648C20.8138 22.0525 20.7683 22.0376 20.7236 22.0201L20.3135 21.8587C19.1612 21.4213 17.9321 21.2374 16.7059 21.3189L16.691 21.3199C15.1903 21.4014 13.7201 21.7849 12.364 22.4484C11.1666 23.0841 10.137 24.0074 9.36311 25.1392C9.35573 25.15 9.3482 25.1607 9.3405 25.1713C8.51593 26.3025 7.93766 27.6017 7.64441 28.9812C7.36231 30.561 7.39328 32.1828 7.73557 33.7502L7.74012 33.7718C8.08573 35.4904 8.71319 37.1365 9.59585 38.6399C10.3473 39.893 11.3435 40.9732 12.5222 41.8124C13.5206 42.5235 14.6265 43.0616 15.7952 43.4047C16.6966 43.6217 17.6082 43.7915 18.5264 43.9137C19.0076 43.9649 19.4729 44.1208 19.8914 44.3711C20.3163 44.6253 20.6829 44.9709 20.966 45.3846C20.9859 45.4136 21.0046 45.4435 21.0221 45.4742C21.5094 46.3269 21.6656 47.3374 21.459 48.3037C21.4551 48.3221 21.4507 48.3405 21.446 48.3587C21.3244 48.8293 21.1069 49.2677 20.8084 49.6453C20.5098 50.0228 20.1368 50.3309 19.7142 50.5493C19.6951 50.5592 19.6758 50.5686 19.6562 50.5774C18.6818 51.019 17.5945 51.1222 16.559 50.8726C14.9077 50.6248 13.2926 50.1681 11.7504 49.5127L11.7324 49.5049C10.0536 48.7599 8.49263 47.7616 7.10125 46.5429C5.49637 45.1926 4.15445 43.543 3.14636 41.6807C1.79311 39.2105 0.873815 36.5152 0.430626 33.7178L0.428765 33.7061C0.0142625 30.9304 0.272176 28.0927 1.17951 25.4436C2.06984 22.7877 3.55909 20.3857 5.52556 18.4332L5.53877 18.4203C7.55265 16.4775 10.0184 15.098 12.6999 14.4134L12.7105 14.4108ZM26.9188 22.7821C26.9128 22.6229 26.9271 22.4362 26.9876 22.2382C27.109 21.8407 27.3796 21.5211 27.7386 21.3393C27.7888 21.3139 27.8389 21.2921 27.8884 21.2734C27.5637 21.0292 27.2311 20.7664 26.899 20.5039C26.8365 20.4546 26.7741 20.4053 26.7118 20.3561C26.1012 19.8744 25.4678 19.3817 24.785 18.9168L24.7711 18.9072C23.3173 17.8886 21.682 17.174 19.9586 16.8042C17.7564 16.3596 15.4866 16.4068 13.3038 16.9428C11.0464 17.5201 8.97113 18.681 7.2757 20.3144C5.59852 21.9817 4.329 24.0316 3.57021 26.2971L3.56723 26.306C2.79799 28.5499 2.57881 30.9534 2.92895 33.3045C3.32475 35.7983 4.14488 38.2015 5.35201 40.4042L5.35539 40.4103C6.21 41.9898 7.34874 43.389 8.71152 44.5337L8.73222 44.5515C9.93141 45.6034 11.2772 46.4654 12.7251 47.109C14.0882 47.6874 15.5165 48.0885 16.9768 48.303C17.0195 48.3092 17.0618 48.3178 17.1037 48.3285C17.6035 48.4566 18.13 48.4141 18.6035 48.2083C18.6968 48.1558 18.7792 48.0854 18.846 48.0009C18.9132 47.9159 18.9633 47.8185 18.9937 47.7144C19.0502 47.4179 19.0057 47.1106 18.8677 46.8438C18.7996 46.7553 18.7157 46.6803 18.62 46.6231C18.51 46.5573 18.3873 46.5166 18.2601 46.5039C18.247 46.5026 18.2339 46.5011 18.2208 46.4993C17.2013 46.3644 16.1892 46.1756 15.1886 45.9336C15.1703 45.9292 15.152 45.9243 15.1339 45.9191C13.6872 45.4983 12.3182 44.8344 11.0826 43.9544C9.61528 42.9097 8.37465 41.564 7.43915 40.0022L7.43348 39.9927C6.40259 38.2383 5.66917 36.317 5.26444 34.3106C4.84789 32.3964 4.81233 30.4155 5.15996 28.4868C5.16227 28.474 5.16476 28.4612 5.16744 28.4485C5.53531 26.7015 6.26436 25.0562 7.305 23.6238C8.31734 22.1489 9.66237 20.9476 11.225 20.1225C11.2357 20.1168 11.2466 20.1113 11.2575 20.1059C12.9159 19.291 14.7145 18.8199 16.5503 18.7192C18.1297 18.6152 19.7129 18.8533 21.197 19.418L21.21 19.423L21.4546 19.5193C21.5399 19.534 21.6236 19.5578 21.7045 19.5902C21.8787 19.6602 22.1253 19.8076 22.2991 19.9118C22.5211 20.0448 22.8077 20.2217 23.1356 20.426C23.4409 20.6162 23.7875 20.8335 24.1583 21.066L24.2449 21.1204C24.6491 21.3738 25.0811 21.6446 25.5232 21.92C25.9918 22.2119 26.4632 22.5037 26.9188 22.7821Z" fill="#A43E88"/>
<path fill-rule="evenodd" clip-rule="evenodd" d="M49.0776 7.4796C48.4916 7.32614 47.9631 6.99777 47.559 6.53603C47.1549 6.07429 46.8934 5.49993 46.8075 4.88562C46.7216 4.27131 46.8152 3.64466 47.0764 3.08496C47.3377 2.52525 47.7549 2.05763 48.2752 1.74128C48.7955 1.42492 49.3956 1.27404 49.9995 1.30773C50.6034 1.34141 51.184 1.55814 51.6678 1.9305C52.1517 2.30287 52.517 2.81413 52.7176 3.39959C52.9182 3.98506 52.9451 4.61843 52.7948 5.21956C52.5918 6.02376 52.087 6.71285 51.3905 7.13631C50.694 7.55978 49.8625 7.68319 49.0776 7.4796Z" fill="#F43072"/>
<path fill-rule="evenodd" clip-rule="evenodd" d="M49.9318 2.60738C49.577 2.58759 49.2246 2.67628 48.9194 2.86184C48.6143 3.04738 48.3702 3.32122 48.2176 3.64821C48.065 3.97515 48.0104 4.34089 48.0606 4.6993C48.1107 5.05774 48.2633 5.39337 48.4998 5.66359C48.736 5.93348 49.0453 6.12604 49.3889 6.21633C49.8504 6.33564 50.339 6.2628 50.7478 6.01421C51.1566 5.76571 51.4518 5.36223 51.5707 4.89275C51.658 4.54236 51.6422 4.17332 51.5253 3.83199C51.4081 3.49015 51.1946 3.191 50.911 2.97278C50.6275 2.75452 50.2867 2.62717 49.9318 2.60738ZM49.0784 7.47889L48.7693 8.74168C49.8772 9.02907 51.051 8.85498 52.0347 8.25688C53.0186 7.6587 53.7329 6.68453 54.0201 5.54623L54.0208 5.54337C54.2337 4.69193 54.1956 3.79479 53.9116 2.96566C53.6275 2.13656 53.1104 1.4132 52.4262 0.886698C51.7422 0.360229 50.9217 0.0541072 50.0687 0.00653292C49.2158 -0.0410409 48.368 0.172027 47.6326 0.619178C46.8971 1.06636 46.3067 1.72774 45.9368 2.52017C45.5669 3.31265 45.4343 4.20021 45.556 5.0704C45.6777 5.94058 46.0481 6.75367 46.6198 7.40693C47.1915 8.06015 47.9387 8.52418 48.7665 8.74096L49.0784 7.47889Z" fill="#F43072"/>
<path fill-rule="evenodd" clip-rule="evenodd" d="M42.9797 32.8669C43.72 32.2342 44.6221 31.8332 45.5783 31.7119C46.6091 31.665 47.6229 31.9933 48.4408 32.6388C49.4761 33.3517 50.685 34.4354 52.1302 35.4192C53.7207 36.5353 55.5105 37.3179 57.3967 37.722C59.7832 38.2056 62.2432 38.1545 64.6087 37.5723C67.0819 36.9445 69.3553 35.6725 71.2092 33.8793C73.0353 32.0686 74.4185 29.8407 75.246 27.3772C76.0852 24.9292 76.3238 22.3067 75.9408 19.7416C75.5204 17.0956 74.6528 14.5453 73.377 12.2058C72.4399 10.4834 71.1954 8.9573 69.7085 7.70708C68.4129 6.56561 66.9557 5.63288 65.3868 4.94085C63.9235 4.31899 62.3899 3.88786 60.822 3.65755C60.0389 3.45994 59.2144 3.53003 58.4736 3.85718C58.2098 3.99394 57.9773 4.18673 57.7917 4.42273C57.606 4.65873 57.4714 4.93256 57.3967 5.22603C57.2622 5.87114 57.3662 6.54451 57.6885 7.11533C57.8678 7.3755 58.0996 7.59296 58.3682 7.7529C58.6368 7.91284 58.9358 8.0115 59.2449 8.04216C60.2142 8.16726 61.1766 8.34335 62.1283 8.56974C63.4447 8.95381 64.6894 9.56105 65.8107 10.3664C67.1309 11.2985 68.2496 12.4998 69.097 13.8954C70.0555 15.5266 70.7368 17.313 71.1119 19.1784C71.4967 20.9211 71.5298 22.7263 71.2092 24.4827C70.8801 26.0675 70.2213 27.5608 69.2777 28.8601C68.3816 30.1692 67.1895 31.2358 65.8037 31.9686C64.3036 32.7171 62.6747 33.1555 61.0096 33.259C59.6045 33.3518 58.196 33.1405 56.8756 32.6388L56.4587 32.4748H56.3962C55.9099 32.2823 49.9624 28.3611 48.1421 27.5483C46.3217 26.7356 50.6503 30.8635 49.1148 30.8065C47.7062 30.7146 46.296 30.9587 44.9946 31.5194H44.9599H44.9252H44.8835H44.8487H44.814H44.7793H44.7445H44.7098H44.675H44.6403H44.6056H44.5708H44.5361H44.5013L44.4458 31.5622L42.9797 32.8669Z" fill="#F26588"/>
<path fill-rule="evenodd" clip-rule="evenodd" d="M61.0581 2.37677C62.7101 2.62448 64.3259 3.08131 65.8686 3.73692L65.8842 3.74365C67.5662 4.48558 69.1289 5.48497 70.5191 6.70781C72.1239 8.05952 73.4675 9.70849 74.4799 11.5692C75.8276 14.041 76.7443 16.7355 77.1884 19.5313L77.1903 19.5436C77.6049 22.3194 77.3469 25.1573 76.4394 27.8065C75.5465 30.4629 74.0547 32.865 72.086 34.8171L72.0746 34.8282C70.0621 36.7748 67.5945 38.1554 64.9106 38.8366L64.9019 38.8388C62.3598 39.4645 59.716 39.5194 57.1513 38.9997L57.1379 38.997C55.0919 38.5586 53.1501 37.7102 51.4239 36.5003C50.6644 35.9829 49.9732 35.4438 49.3612 34.9609C49.2996 34.9124 49.2391 34.8646 49.1795 34.8175C48.6305 34.3839 48.1648 34.0162 47.7363 33.721C47.7137 33.7055 47.6916 33.6892 47.67 33.6721C47.1015 33.2234 46.3992 32.99 45.6821 33.011C44.9845 33.1092 44.3278 33.4064 43.7869 33.8687C43.2531 34.3249 42.462 34.2535 42.0134 33.7086C41.5649 33.1637 41.6264 32.3487 42.1512 31.8816L43.6173 30.5769C43.6399 30.5567 43.6632 30.5374 43.6872 30.519L43.7428 30.4762C43.9615 30.3079 44.2272 30.2169 44.5003 30.2169H44.748C45.6067 29.8728 46.504 29.648 47.4161 29.5469C47.4153 29.5458 47.4145 29.5447 47.4138 29.5436C47.2805 29.3584 47.1406 29.164 47.0196 28.9872C46.8808 28.7845 46.7124 28.5279 46.5988 28.2826C46.5486 28.1741 46.4509 27.9482 46.4264 27.6692C46.399 27.3577 46.4637 26.7019 47.0906 26.3293C47.5442 26.0597 47.9935 26.1485 48.1219 26.1754C48.3145 26.2159 48.496 26.2871 48.6445 26.3534C49.653 26.8037 51.6841 28.0462 53.4235 29.1298C53.9101 29.433 54.3533 29.7109 54.7638 29.9684C55.1372 30.2025 55.4836 30.4197 55.811 30.6236C56.1372 30.8266 56.4086 30.9938 56.6112 31.115C56.6861 31.1598 56.7426 31.1927 56.7834 31.2162C56.826 31.2279 56.868 31.2418 56.9093 31.2581L57.3194 31.4194C58.472 31.8562 59.7012 32.0402 60.9276 31.9592L60.9324 31.9589C62.4275 31.866 63.8901 31.4733 65.2376 30.8031C66.4363 30.1666 67.4671 29.2425 68.2425 28.1098C68.2493 28.0999 68.2562 28.09 68.2633 28.0803C69.0945 26.9356 69.6757 25.6211 69.9677 24.2261C70.2532 22.6499 70.2224 21.0305 69.8772 19.4668L69.872 19.4422C69.5267 17.7249 68.8999 16.08 68.0183 14.5775C67.2638 13.3373 66.2684 12.2694 65.094 11.4402L65.0857 11.4343C64.0883 10.718 62.982 10.1762 61.8117 9.83118C60.9172 9.61953 60.0129 9.45434 59.1022 9.33626C58.6199 9.28543 58.1534 9.13001 57.7336 8.88001C57.3079 8.62651 56.9402 8.28164 56.6556 7.86866C56.6335 7.8366 56.6128 7.80354 56.5936 7.76956C56.1133 6.91883 55.9581 5.91475 56.1587 4.95265C56.1626 4.93366 56.167 4.91476 56.1718 4.89598C56.292 4.42333 56.5088 3.9826 56.8075 3.60295C57.1061 3.22333 57.4798 2.91353 57.9036 2.69386C57.9266 2.6819 57.9501 2.67068 57.9738 2.6602C58.9468 2.23046 60.0275 2.13157 61.0581 2.37677ZM50.7137 30.4937C50.7199 30.6529 50.7059 30.8397 50.6457 31.038C50.5247 31.4361 50.2542 31.7564 49.8947 31.9386C49.8482 31.9622 49.8018 31.9827 49.7559 32.0004C50.0704 32.2378 50.3919 32.4919 50.7131 32.7457C50.7756 32.7951 50.838 32.8444 50.9004 32.8936C51.5109 33.3752 52.1443 33.868 52.8271 34.3328L52.8418 34.343C54.2929 35.3613 55.9258 36.0758 57.6469 36.4455C59.8516 36.8912 62.1239 36.8438 64.3091 36.3066C66.5673 35.7326 68.643 34.5714 70.3361 32.9356C72.0159 31.2683 73.288 29.218 74.0492 26.9515L74.0519 26.9437C74.8211 24.6999 75.0403 22.2965 74.6902 19.9455C74.2934 17.4519 73.4753 15.0483 72.2727 12.8431L72.2721 12.842C71.4127 11.2624 70.2712 9.8625 68.9071 8.71555C68.9034 8.71243 68.8997 8.7093 68.8961 8.70615C68.8923 8.7029 68.8885 8.69963 68.8848 8.69633C67.6887 7.64252 66.3435 6.78096 64.8952 6.14116C63.5318 5.56253 62.103 5.16123 60.6423 4.94667C60.6011 4.94061 60.5602 4.93247 60.5198 4.92227C60.0176 4.79554 59.4895 4.83582 59.0118 5.03647C58.9203 5.08889 58.8395 5.15876 58.7739 5.24218C58.7068 5.32746 58.6569 5.42514 58.6267 5.52958C58.5715 5.82804 58.6157 6.1368 58.7522 6.40632C58.821 6.49412 58.9051 6.56851 59.0008 6.62547C59.1122 6.69185 59.2365 6.73291 59.3652 6.74568C59.3773 6.74687 59.3893 6.74824 59.4013 6.74979C60.4134 6.88042 61.4184 7.06429 62.4121 7.3007C62.4323 7.30549 62.4523 7.3108 62.4722 7.3166C63.9224 7.73967 65.2937 8.40836 66.5295 9.29517C67.9911 10.328 69.23 11.6588 70.1689 13.205L70.1786 13.2213C71.2093 14.9753 71.9426 16.8961 72.3474 18.902C72.768 20.8147 72.8034 22.7956 72.4517 24.723C72.4506 24.7289 72.4495 24.7348 72.4483 24.7407C72.4474 24.7454 72.4464 24.7501 72.4455 24.7547C72.0794 26.5177 71.3478 28.1788 70.3006 29.6251C69.2878 31.0996 67.9429 32.3009 66.3808 33.1269C66.3762 33.1293 66.3715 33.1318 66.3668 33.1342C66.3628 33.1362 66.3587 33.1383 66.3546 33.1403C64.7063 33.9628 62.9167 34.4446 61.0876 34.5587C59.5068 34.6628 57.9222 34.4249 56.4365 33.8604L56.423 33.8552L56.1726 33.7566C56.0937 33.7421 56.0162 33.7199 55.9411 33.6902C55.7632 33.6198 55.5139 33.4711 55.3399 33.3671C55.1171 33.2338 54.8298 33.0567 54.5016 32.8523C54.2057 32.6682 53.8419 32.4401 53.4507 32.1949C53.0202 31.925 52.5565 31.6343 52.1133 31.3582C51.6432 31.0653 51.1704 30.7728 50.7137 30.4937Z" fill="#F26588"/>
<path fill-rule="evenodd" clip-rule="evenodd" d="M28.5472 45.7706C29.1326 45.9257 29.6601 46.2555 30.063 46.7182C30.4658 47.1809 30.7258 47.7558 30.8102 48.3702C30.8946 48.9846 30.7996 49.6108 30.5371 50.1698C30.2746 50.7287 29.8565 51.1952 29.3356 51.5103C28.8148 51.8254 28.2145 51.975 27.6108 51.94C27.0071 51.9051 26.4271 51.6872 25.9441 51.314C25.4611 50.9407 25.0967 50.4289 24.8972 49.8432C24.6977 49.2575 24.6719 48.6243 24.8231 48.0236C25.0275 47.2191 25.534 46.5305 26.2319 46.1083C26.9298 45.6861 27.7623 45.5647 28.5472 45.7706Z" fill="#AC8CED"/>
<path fill-rule="evenodd" clip-rule="evenodd" d="M28.2331 47.0331C27.7716 46.9124 27.2825 46.984 26.8728 47.2319C26.4632 47.4796 26.167 47.8828 26.0473 48.3525C25.9594 48.7026 25.9746 49.0716 26.0909 49.4131C26.2074 49.755 26.4204 50.0545 26.7034 50.2732C26.9865 50.492 27.327 50.62 27.6817 50.6405C28.0364 50.6611 28.3889 50.5732 28.6944 50.3884C28.9999 50.2036 29.2445 49.9303 29.3978 49.6038C29.5511 49.2773 29.6065 48.9118 29.5573 48.5533C29.5081 48.1949 29.3563 47.8589 29.1205 47.5881C28.8851 47.3177 28.5764 47.1243 28.2331 47.0331ZM28.547 45.7715L28.8595 44.5095C27.7516 44.2188 26.5764 44.39 25.5907 44.9863C24.6048 45.5827 23.8882 46.5562 23.5989 47.6949L23.5989 47.6949L23.5981 47.6977C23.384 48.5486 23.4205 49.4456 23.7031 50.275C23.9857 51.1044 24.5014 51.8286 25.1844 52.3563C25.8673 52.884 26.6869 53.1917 27.5396 53.2411C28.3922 53.2905 29.2403 53.0793 29.9765 52.6339C30.7127 52.1885 31.3044 51.5287 31.676 50.7373C32.0476 49.946 32.1823 49.059 32.0628 48.1887C31.9432 47.3184 31.5749 46.5045 31.005 45.8499C30.4351 45.1953 29.6894 44.7293 28.8623 44.5102L28.547 45.7715Z" fill="#AC8CED"/>
<path fill-rule="evenodd" clip-rule="evenodd" d="M42.9854 32.8673C43.7227 32.2352 44.623 31.8364 45.5769 31.7194C46.6089 31.6636 47.6256 31.9928 48.4395 32.6462C49.4747 33.3449 50.7115 34.4357 52.1011 35.3982C53.6916 36.5143 55.4814 37.2969 57.3676 37.701C59.7612 38.1994 62.232 38.1556 64.6073 37.5727C67.0805 36.9449 69.354 35.6729 71.2079 33.8796C73.0379 32.0723 74.4218 29.8433 75.2446 27.3776C76.0836 24.9319 76.3222 22.3119 75.9394 19.7491C75.5192 17.1008 74.6516 14.5481 73.3757 12.2061C72.4387 10.4857 71.1941 8.96195 69.7071 7.71456C68.4118 6.57084 66.9546 5.63572 65.3855 4.94121C63.9211 4.32263 62.3879 3.89161 60.8207 3.65791C60.0369 3.46148 59.212 3.5341 58.4723 3.86466C58.2085 4.00143 57.976 4.19421 57.7903 4.43021C57.6047 4.66621 57.47 4.94004 57.3954 5.23351C57.2607 5.8763 57.3647 6.54754 57.6872 7.11569C57.8655 7.37686 58.097 7.59506 58.3658 7.75512C58.6346 7.91517 58.9341 8.01325 59.2435 8.04252C59.987 8.19936 60.9736 8.24214 62.1269 8.5701C63.4423 8.95713 64.6865 9.56416 65.8093 10.3667C67.128 11.3007 68.2464 12.5017 69.0957 13.8958C70.0571 15.5254 70.7386 17.3124 71.1106 19.1787C71.4953 20.9239 71.5284 22.7314 71.2079 24.4902C70.8773 26.0745 70.2186 27.5674 69.2764 28.8676C68.377 30.1718 67.1856 31.2354 65.8024 31.9689C64.3022 32.7173 62.6733 33.1557 61.0083 33.2594C59.6027 33.3501 58.1942 33.1363 56.8743 32.632L56.4574 32.468H56.3949C55.9085 32.2755 49.9611 28.3543 48.1407 27.5416C46.3204 26.7288 50.6559 30.8568 49.1134 30.8068C47.7071 30.7151 46.2992 30.9591 45.0003 31.5198H44.9586H44.9238H44.8821H44.8474H44.8127H44.7779H44.7432H44.7084H44.6737H44.639H44.6042H44.5695H44.5347H44.5L44.4444 31.5626L42.9854 32.8673Z" fill="#A4448B"/>
<path fill-rule="evenodd" clip-rule="evenodd" d="M61.0581 2.37711C62.7099 2.62866 64.3261 3.08473 65.8713 3.73545L65.8939 3.74524C67.5718 4.49128 69.1308 5.49239 70.5184 6.71495C72.1231 8.06369 73.4666 9.71014 74.4789 11.5687C75.827 14.0432 76.7438 16.7404 77.1878 19.5387L77.1897 19.5508C77.6039 22.3239 77.3461 25.159 76.4392 27.8054C75.5506 30.4654 74.0574 32.8696 72.0835 34.819L72.0741 34.8283C70.0616 36.775 67.5939 38.1555 64.91 38.8367L64.9005 38.8392C62.3465 39.4659 59.69 39.513 57.1165 38.9771L57.1095 38.9756C55.0618 38.5369 53.1186 37.6875 51.3913 36.4761C50.6625 35.9711 49.9792 35.4364 49.3702 34.9587L49.3398 34.9349C48.7283 34.4551 48.2097 34.0482 47.7455 33.7349C47.7165 33.7154 47.6884 33.6947 47.6611 33.6727C47.0987 33.2212 46.398 32.989 45.6842 33.0176C44.9884 33.1113 44.333 33.4061 43.7947 33.8676C43.2617 34.3245 42.4707 34.2545 42.0213 33.7106C41.5719 33.1668 41.6317 32.3519 42.1553 31.8837L43.6144 30.579C43.6377 30.5581 43.6618 30.5381 43.6866 30.5191L43.7422 30.4763C43.9609 30.308 44.2266 30.2171 44.4997 30.2171H44.754C45.6126 29.8724 46.5101 29.6475 47.4223 29.5466C47.4189 29.5419 47.4155 29.5372 47.4121 29.5325C47.2799 29.3488 47.1413 29.1563 47.0213 28.9813C46.8823 28.7786 46.7138 28.5222 46.6 28.2775C46.5497 28.1692 46.4518 27.944 46.4267 27.6656C46.3987 27.3561 46.4604 26.6979 47.0886 26.3233C47.5431 26.0522 47.9938 26.1416 48.1215 26.1684C48.3141 26.2089 48.4955 26.2801 48.6439 26.3464C49.6524 26.7966 51.6835 28.0392 53.4229 29.1228C53.9095 29.426 54.3527 29.7039 54.7632 29.9613C55.1366 30.1955 55.483 30.4127 55.8104 30.6165C56.1366 30.8196 56.408 30.9868 56.6106 31.1079C56.6855 31.1528 56.742 31.1857 56.7828 31.2091C56.8254 31.2208 56.8674 31.2348 56.9087 31.2511L57.3198 31.4128C58.4721 31.8522 59.7017 32.0384 60.9289 31.9592L60.9317 31.959C62.4265 31.866 63.8889 31.4734 65.2363 30.8036C66.434 30.1656 67.4653 29.2431 68.2444 28.1134C68.2502 28.105 68.256 28.0967 68.262 28.0885C69.0924 26.9427 69.6737 25.628 69.9672 24.2329C70.2526 22.6543 70.2217 21.0326 69.8765 19.4665L69.871 19.4401C69.5288 17.7233 68.9023 16.0792 68.0188 14.5794C67.2619 13.3394 66.266 12.2708 65.0919 11.4392L65.0875 11.436C64.0803 10.7162 62.9643 10.1713 61.7843 9.82347C61.2847 9.68175 60.8117 9.59869 60.3519 9.53092C60.2434 9.51493 60.1291 9.49904 60.0121 9.48276C59.6926 9.43833 59.3526 9.39103 59.0536 9.33116C58.5881 9.27659 58.1381 9.12383 57.732 8.88199C57.3044 8.62738 56.9357 8.28009 56.6517 7.86401C56.6314 7.83426 56.6123 7.80364 56.5945 7.77224C56.1126 6.92324 55.9569 5.91967 56.1584 4.95847C56.1622 4.93996 56.1665 4.92153 56.1712 4.90321C56.2914 4.43057 56.5082 3.98983 56.8068 3.61019C57.1055 3.23057 57.4792 2.92077 57.903 2.7011C57.9244 2.68998 57.9462 2.67949 57.9682 2.66964C58.9417 2.23463 60.0248 2.13249 61.0581 2.37711ZM50.7153 30.488C50.7218 30.6488 50.7077 30.838 50.6462 31.0387C50.5249 31.4347 50.2559 31.7532 49.8989 31.9356C49.8507 31.9602 49.8026 31.9816 49.7549 32C50.1085 32.2629 50.4714 32.5477 50.8322 32.8307L50.904 32.8871C51.5187 33.3694 52.1475 33.8604 52.8071 34.3173L52.8134 34.3217C54.2654 35.3406 55.8993 36.0553 57.6215 36.4248C59.8325 36.8847 62.1148 36.8444 64.3091 36.3066C66.5675 35.7324 68.6433 34.571 70.3365 32.9348C72.019 31.2716 73.2911 29.2214 74.0478 26.9541L74.0513 26.9435C74.8202 24.7022 75.0393 22.3013 74.6896 19.9527C74.2928 17.4566 73.4747 15.0505 72.2719 12.8427C71.4128 11.2653 70.2714 9.86778 68.9076 8.7237C68.8994 8.71685 68.8913 8.70989 68.8833 8.70283C67.6891 7.6488 66.3468 6.78527 64.9017 6.14136C63.5335 5.56629 62.1019 5.16496 60.6387 4.94633C60.5992 4.94042 60.5599 4.9326 60.5211 4.92287C60.0185 4.7969 59.4902 4.83911 59.0133 5.04253C58.9209 5.09509 58.8394 5.16537 58.7733 5.24942C58.7061 5.33486 58.6561 5.43274 58.626 5.5374C58.5707 5.83389 58.6152 6.14078 58.7521 6.40796C58.82 6.49607 58.9037 6.57063 58.9991 6.62744C59.1091 6.69296 59.2319 6.73322 59.359 6.74525C59.4055 6.74964 59.4516 6.75667 59.4973 6.7663C59.7212 6.81355 59.9583 6.84653 60.2638 6.88903C60.3979 6.9077 60.5453 6.9282 60.7105 6.95255C61.2166 7.02713 61.8119 7.12907 62.4635 7.31438L62.4744 7.31746C63.9223 7.7435 65.292 8.41163 66.5285 9.295C67.9882 10.3294 69.2266 11.6594 70.1673 13.2035L70.1769 13.2194C71.2113 14.9729 71.9453 16.8953 72.3471 18.9034C72.7673 20.818 72.8027 22.8006 72.4511 24.7299C72.4495 24.7385 72.4479 24.7471 72.4462 24.7556C72.4456 24.7582 72.4451 24.7607 72.4446 24.7632C72.0769 26.5257 71.3452 28.1865 70.2991 29.6336C69.2834 31.1022 67.94 32.2997 66.3816 33.1262C66.3724 33.1311 66.3631 33.1359 66.3538 33.1405C64.7048 33.9631 62.9144 34.445 61.0844 34.5589C59.5031 34.6606 57.9186 34.4199 56.4337 33.8525L56.4224 33.8482L56.172 33.7496C56.0931 33.7351 56.0156 33.7129 55.9405 33.6832C55.7626 33.6127 55.5133 33.4641 55.3393 33.36C55.1165 33.2267 54.8292 33.0496 54.501 32.8453C54.205 32.6611 53.8412 32.433 53.4499 32.1877C53.0194 31.9179 52.5558 31.6272 52.1127 31.3511C51.6434 31.0588 51.1714 30.7667 50.7153 30.488Z" fill="#A4448B"/>
<path fill-rule="evenodd" clip-rule="evenodd" d="M39.4969 37.5936C39.9346 37.0018 41.9912 33.9861 42.6234 33.3872C43.2557 32.7883 42.9708 33.0735 43.1445 32.938C43.7442 32.3636 44.4231 31.8832 45.1594 31.5122C46.4608 30.9514 47.871 30.7074 49.2796 30.7992C50.8053 30.8725 52.3191 31.1115 53.7957 31.5122C54.7395 31.769 55.6675 32.0833 56.5749 32.4532H56.6444C55.5533 31.9667 54.5148 31.3646 53.5456 30.6566C52.3989 29.7841 51.2092 28.9727 49.9813 28.2255C48.8176 27.5733 47.5491 27.1411 46.2364 26.9493C44.9971 26.7524 43.7291 26.895 42.5609 27.3628C41.2464 27.9595 40.0463 28.7925 39.0175 29.8225C37.9521 31.0185 36.9832 32.3012 36.1202 33.6581C35.6708 34.2704 35.2556 34.9083 34.8765 35.5688L31.1802 33.2018L32.2988 43.4255L42.3247 40.1174L39.1078 38.1497L39.4969 37.5936Z" fill="#AC8CED"/>
<path fill-rule="evenodd" clip-rule="evenodd" d="M46.4231 25.6558C47.8833 25.87 49.2945 26.3514 50.5894 27.077C50.6026 27.0844 50.6156 27.092 50.6285 27.0999C51.8902 27.8677 53.1127 28.7013 54.2913 29.5974C55.1856 30.2496 56.1437 30.8046 57.1501 31.2534C57.7028 31.4999 58.0114 32.1119 57.8891 32.719C57.7669 33.3261 57.2473 33.7614 56.645 33.7614H56.5755C56.4153 33.7614 56.2565 33.7302 56.1076 33.6695C55.247 33.3186 54.3667 33.0205 53.4716 32.7769M53.4716 32.7769C52.0818 32.3999 50.6569 32.175 49.2209 32.106L49.1998 32.1048C47.9988 32.0265 46.7965 32.2316 45.6853 32.7041C45.0739 33.0162 44.5098 33.4177 44.0108 33.8957C43.9794 33.9258 43.9466 33.9542 43.9124 33.9808C43.8787 34.0071 43.8273 34.0461 43.7664 34.0848C43.708 34.1389 43.6193 34.2221 43.4844 34.3499C43.4119 34.4186 43.224 34.6382 42.9276 35.0247C42.6514 35.3846 42.3307 35.8233 42.0098 36.2705C41.6956 36.7082 41.369 37.1718 41.095 37.5607C41.0468 37.6291 41.0003 37.6953 40.9557 37.7585L42.9744 38.9933C43.4041 39.2562 43.6441 39.7539 43.5878 40.2651C43.5314 40.7764 43.1891 41.2061 42.7131 41.3632L32.6872 44.6712C32.3246 44.7909 31.929 44.7368 31.6092 44.5239C31.2895 44.311 31.0794 43.9617 31.0368 43.5721L29.9182 33.3485C29.8637 32.8503 30.0906 32.3639 30.5024 32.0962C30.9142 31.8286 31.4384 31.8268 31.8519 32.0916L34.4786 33.7736C34.6724 33.4792 34.8733 33.1897 35.0811 32.9054C35.9759 31.5027 36.9793 30.1763 38.0815 28.9389C38.0979 28.9205 38.1148 28.9025 38.1322 28.8851C39.2696 27.7465 40.5961 26.8258 42.0489 26.1664C42.066 26.1586 42.0834 26.1512 42.1008 26.1442C43.4748 25.594 44.9657 25.4256 46.4231 25.6558M43.8386 34.019C43.842 34.0161 43.8412 34.0169 43.837 34.0204C43.8377 34.0198 43.8382 34.0194 43.8386 34.019ZM43.0939 34.2897C43.0597 34.2906 43.046 34.2898 43.0731 34.2898C43.0791 34.2898 43.0861 34.2898 43.0939 34.2897ZM49.5874 29.5063C49.5101 29.4585 49.4327 29.411 49.3551 29.3637C48.3301 28.7923 47.2137 28.4133 46.0584 28.2445L46.0431 28.2422C45.0335 28.0817 44.0008 28.1955 43.0479 28.5718C41.8928 29.0999 40.8373 29.832 39.9296 30.7347C38.9206 31.8705 38.0024 33.0878 37.1838 34.3748C37.1682 34.3994 37.1518 34.4234 37.1346 34.4468C36.7142 35.0197 36.3257 35.6165 35.971 36.2344C35.797 36.5375 35.5117 36.7556 35.1795 36.8394C34.8473 36.9232 34.4963 36.8656 34.2059 36.6796L32.737 35.739L33.3884 41.693L39.251 39.7586L38.4593 39.2743C38.1529 39.0869 37.9371 38.7757 37.8644 38.4165C37.7918 38.0573 37.8691 37.6833 38.0773 37.3856L38.4664 36.8295C38.473 36.8201 38.4797 36.8108 38.4866 36.8015C38.589 36.663 38.7727 36.402 39.0094 36.0656C39.2747 35.6884 39.6068 35.2165 39.9658 34.7162C40.2928 34.2607 40.6321 33.7961 40.9331 33.4037C41.2138 33.0378 41.52 32.6558 41.7637 32.425C41.9221 32.275 42.0291 32.1745 42.1021 32.1076C42.1382 32.0744 42.1723 32.0437 42.2034 32.0168C42.2271 31.9963 42.2804 31.9504 42.3462 31.9047C42.357 31.8972 42.3733 31.886 42.3946 31.8724C43.0571 31.2582 43.7998 30.7416 44.6014 30.3377C44.6238 30.3265 44.6464 30.3159 44.6694 30.306C46.1479 29.6689 47.7496 29.3909 49.3498 29.4935C49.429 29.4974 49.5082 29.5016 49.5874 29.5063ZM43.0421 31.6744C43.0229 31.6751 42.9993 31.6762 42.9734 31.6783C42.9999 31.676 43.023 31.6749 43.0421 31.6744Z" fill="#AC8CED"/>
<path fill-rule="evenodd" clip-rule="evenodd" d="M34.6477 20.3837C33.9074 21.0164 33.0054 21.4174 32.0492 21.5387C31.0133 21.5915 29.9932 21.2628 29.1727 20.6118C28.1375 19.8989 26.9285 18.8152 25.4834 17.8314C23.8894 16.7169 22.0977 15.9345 20.2099 15.5285C17.8255 15.045 15.3671 15.0985 13.0049 15.6854C10.5345 16.3168 8.26246 17.5856 6.40432 19.3713C4.58255 21.1843 3.20209 23.4116 2.37451 25.8734C1.53585 28.3215 1.29723 30.9439 1.67971 33.509C2.09828 36.1565 2.96852 38.7075 4.25045 41.0449C5.18299 42.7684 6.42544 44.2949 7.91202 45.5435C9.21133 46.6817 10.6677 47.6163 12.2336 48.3169C13.6982 48.9335 15.2314 49.3622 16.7984 49.5931C17.5815 49.7912 18.4062 49.7211 19.1468 49.3934C19.4107 49.2567 19.6431 49.0639 19.8288 48.8279C20.0145 48.5919 20.1491 48.3181 20.2238 48.0246C20.3597 47.3803 20.2582 46.7073 19.9389 46.1353C19.758 45.8768 19.5258 45.6605 19.2575 45.5007C18.9893 45.341 18.6911 45.2414 18.3826 45.2085C17.6391 45.0587 16.6456 45.0088 15.4922 44.688C14.1747 44.2976 12.9284 43.6882 11.8029 42.8843C10.485 41.9546 9.36852 40.7555 8.52344 39.3623C7.56509 37.7304 6.88158 35.9444 6.50159 34.0794C6.12035 32.3338 6.08726 30.527 6.40432 28.7679C6.72859 27.1827 7.38532 25.689 8.3289 24.3905C9.22482 23.0831 10.417 22.0187 11.8029 21.2891C13.312 20.5414 14.9512 20.11 16.6247 20.0201C18.0299 19.9267 19.4385 20.138 20.7588 20.6404C20.9047 20.6974 21.0367 20.7473 21.1756 20.8115H21.2451C21.7245 21.0111 27.6789 24.9323 29.4923 25.7379C31.3057 26.5436 26.9841 22.4227 28.5196 22.4798C29.9282 22.5724 31.3386 22.3283 32.6397 21.7668H32.6745H32.7092H32.7509H32.7857H32.8204H32.8551H32.8899H32.9246H32.9594H32.9941H33.0288H33.0636H33.0983H33.133L33.1817 21.7169L34.6477 20.3837Z" fill="#F43072"/>
<path fill-rule="evenodd" clip-rule="evenodd" d="M12.7073 14.4185C15.2471 13.7875 17.8901 13.73 20.4537 14.2499L20.4678 14.2528C22.5148 14.6929 24.4579 15.5409 26.1871 16.7487C26.9469 17.2663 27.6383 17.8056 28.2506 18.2886C28.3122 18.3372 28.3727 18.385 28.4323 18.4321C28.9813 18.8657 29.447 19.2334 29.8755 19.5285C29.899 19.5447 29.922 19.5617 29.9443 19.5795C30.5141 20.0315 31.2203 20.2648 31.9402 20.239C32.639 20.1413 33.297 19.8439 33.8387 19.3808C34.3705 18.9263 35.1582 18.9953 35.6078 19.5356C36.0575 20.076 36.0026 20.8877 35.4846 21.3588L34.0472 22.6661L34.0255 22.6883C33.7884 22.9316 33.4672 23.0683 33.1323 23.0683H32.8849C32.0255 23.4132 31.1273 23.6382 30.2143 23.7391C30.2159 23.7412 30.2174 23.7433 30.2189 23.7454C30.3513 23.9296 30.49 24.1227 30.6102 24.2982C30.7489 24.5009 30.9169 24.757 31.0303 25.0014C31.0805 25.1096 31.178 25.3342 31.2033 25.6115C31.2312 25.9181 31.1721 26.5772 30.5439 26.9536C30.0882 27.2266 29.636 27.1365 29.5084 27.1095C29.3158 27.0689 29.1345 26.9974 28.9865 26.9311C27.9829 26.4813 25.9534 25.2417 24.213 24.1583C23.7144 23.8479 23.2144 23.5344 22.7592 23.2491C22.4155 23.0336 22.0974 22.8341 21.8248 22.6642C21.4986 22.4608 21.2267 22.2928 21.0235 22.1705C20.9515 22.1272 20.8961 22.0946 20.8548 22.0705C20.7872 22.0524 20.7211 22.0284 20.6571 21.9988C20.5729 21.96 20.4948 21.9295 20.3674 21.8798C20.3506 21.8733 20.3329 21.8664 20.3142 21.8591C19.1617 21.4214 17.9321 21.2373 16.7055 21.3188L16.6899 21.3198C15.1886 21.4004 13.718 21.7865 12.3637 22.4554C11.1654 23.086 10.1355 24.0071 9.36331 25.1383C9.35611 25.1489 9.34877 25.1593 9.34127 25.1696C8.51085 26.3124 7.93213 27.6262 7.64473 29.0201C7.3619 30.601 7.39264 32.2243 7.73521 33.7929L7.73908 33.8112C8.08918 35.5295 8.71845 37.1752 9.60066 38.6796C10.3527 39.9171 11.3455 40.9825 12.5173 41.8091L12.5234 41.8134C13.5327 42.5343 14.6501 43.0813 15.8315 43.4327C16.3329 43.5715 16.8088 43.6546 17.2691 43.7222C17.3866 43.7395 17.5106 43.7566 17.6372 43.7741C17.9525 43.8176 18.284 43.8634 18.5723 43.9191C19.0367 43.9771 19.4851 44.1313 19.8903 44.3726C20.313 44.6243 20.6793 44.9653 20.9648 45.3732C20.9901 45.4094 21.0136 45.4469 21.0352 45.4856C21.5106 46.3373 21.6619 47.3401 21.4594 48.3C21.4556 48.318 21.4515 48.3358 21.4469 48.3536C21.3267 48.8263 21.1099 49.267 20.8113 49.6466C20.5126 50.0262 20.1389 50.336 19.7151 50.5557C19.6923 50.5675 19.6692 50.5787 19.6457 50.5891C18.6724 51.0197 17.591 51.1186 16.56 50.8727C14.9105 50.6246 13.2965 50.1709 11.7539 49.5214L11.7286 49.5104C10.0523 48.7605 8.49306 47.7606 7.10125 46.5432C5.49631 45.1929 4.15433 43.5432 3.14618 41.681C1.79197 39.211 0.87253 36.5152 0.430192 33.7173L0.428356 33.7057C0.0144601 30.9299 0.272439 28.0922 1.17934 25.443C2.07213 22.7891 3.56059 20.3882 5.52417 18.4341L5.54016 18.4185C7.55586 16.4814 10.0202 15.1053 12.6992 14.4206L12.7073 14.4185ZM26.9185 22.791C26.9123 22.6314 26.9265 22.4441 26.9872 22.2452C27.1087 21.8477 27.3792 21.5282 27.7383 21.3464C27.7906 21.3199 27.8428 21.2973 27.8943 21.2781C27.5676 21.0325 27.2329 20.768 26.8986 20.5038C26.8362 20.4545 26.7738 20.4052 26.7114 20.356C26.1009 19.8743 25.4675 19.3816 24.7847 18.9167L24.7717 18.9078C23.3166 17.8904 21.681 17.1756 19.9575 16.804C17.7558 16.3586 15.4862 16.4082 13.305 16.9495C11.0484 17.527 8.9731 18.6854 7.27501 20.3146C5.59988 21.9841 4.33066 24.0338 3.56938 26.2984L3.56695 26.3056C2.79815 28.5498 2.57898 30.9534 2.92864 33.3048C3.3236 35.7986 4.14369 38.2016 5.35143 40.4037L5.35503 40.4103C6.20964 41.9897 7.34838 43.3889 8.71116 44.5336L8.73121 44.5508C9.93203 45.6027 11.2777 46.4671 12.7246 47.116C14.0892 47.6892 15.5173 48.0879 16.977 48.303C17.0182 48.3091 17.0592 48.3173 17.0997 48.3275C17.6015 48.4545 18.1293 48.4142 18.6066 48.2133C18.6983 48.1608 18.7791 48.0909 18.8448 48.0074C18.9122 47.9217 18.9623 47.8235 18.9924 47.7186C19.0485 47.4218 19.0066 47.1145 18.8736 46.845C18.8037 46.758 18.719 46.6842 18.6232 46.6271C18.5094 46.5594 18.3826 46.517 18.2514 46.503C18.2136 46.4989 18.1761 46.4932 18.1389 46.4857C17.9166 46.4409 17.6829 46.4087 17.3879 46.368C17.2453 46.3484 17.0885 46.3267 16.9117 46.3008C16.404 46.2262 15.8097 46.1247 15.1614 45.9444L15.1414 45.9386C13.6927 45.5093 12.322 44.8394 11.0839 43.9555C9.62375 42.9249 8.38638 41.5957 7.4495 40.0512L7.43993 40.0351C6.40951 38.2804 5.67406 36.3603 5.26444 34.3549C4.84754 32.4402 4.81187 30.4588 5.15959 28.5295C5.16145 28.5192 5.16342 28.5089 5.16551 28.4987C5.52646 26.7342 6.25612 25.0714 7.30381 23.6249C8.31535 22.1487 9.66246 20.9483 11.228 20.1277L11.2534 20.1148C12.9114 19.2933 14.712 18.8188 16.5503 18.7191C18.1296 18.6152 19.7126 18.8533 21.1967 19.4179L21.2072 19.4219C21.2235 19.4283 21.2405 19.435 21.2582 19.4419C21.3257 19.4681 21.4029 19.4981 21.4853 19.5321C21.565 19.548 21.6432 19.5718 21.7188 19.6033C21.8845 19.6723 22.1239 19.8157 22.3005 19.9219C22.5218 20.0551 22.8079 20.232 23.1357 20.4363C23.4291 20.6192 23.7485 20.8195 24.0899 21.0336C24.5334 21.3116 25.0139 21.6129 25.5224 21.9295C25.9911 22.2212 26.4628 22.5128 26.9185 22.791Z" fill="#F43072"/>
<path fill-rule="evenodd" clip-rule="evenodd" d="M38.128 15.6566C37.6972 16.2483 35.6406 19.2712 35.0014 19.8701C34.3622 20.469 34.654 20.1838 34.4803 20.3193C33.8803 20.8931 33.2014 21.3735 32.4654 21.7451C31.1674 22.3089 29.7587 22.553 28.3522 22.4581C26.8261 22.3889 25.3119 22.1499 23.8361 21.7451C22.8924 21.4909 21.9643 21.179 21.0569 20.8112H20.9874C22.0762 21.2978 23.1125 21.9 24.0793 22.6078C25.2284 23.4803 26.4204 24.2917 27.6505 25.039C28.8112 25.6911 30.0778 26.1211 31.3885 26.308C32.63 26.5049 33.9002 26.3622 35.0709 25.8945C36.3848 25.3003 37.5829 24.467 38.6074 23.4348C39.6708 22.2669 40.6376 21.0102 41.4978 19.6776C41.9492 19.0693 42.3645 18.4336 42.7414 17.774L46.4377 20.141L45.34 9.82471L35.321 13.1399L38.5379 15.1076L38.128 15.6566Z" fill="#FF7B62"/>
<path fill-rule="evenodd" clip-rule="evenodd" d="M46.032 8.72717C46.3523 8.94094 46.5622 9.29156 46.6037 9.6821L47.7015 19.9984C47.7545 20.496 47.5268 20.9811 47.1152 21.2478C46.7036 21.5144 46.1802 21.5158 45.7673 21.2514L43.1405 19.5692C42.9457 19.8638 42.7434 20.1531 42.5337 20.4369C41.6403 21.8167 40.6374 23.1186 39.5352 24.329C39.5227 24.3427 39.5099 24.3562 39.4969 24.3693C38.3628 25.5119 37.0366 26.4342 35.5827 27.0917C35.5657 27.0994 35.5486 27.1067 35.5314 27.1135C34.156 27.6631 32.6641 27.8315 31.2054 27.602C29.7459 27.3927 28.3354 26.9132 27.0424 26.1867C27.03 26.1798 27.0177 26.1726 27.0055 26.1651C25.7412 25.3972 24.5161 24.5634 23.3348 23.6671C22.4427 23.0148 21.4866 22.4596 20.4821 22.0107C19.9298 21.7638 19.6216 21.1518 19.7441 20.545C19.8666 19.9381 20.386 19.5031 20.9881 19.5031H21.0576C21.217 19.5031 21.3749 19.5339 21.5232 19.5941C22.3836 19.9428 23.2636 20.2386 24.1585 20.4797L24.1639 20.4811C25.551 20.8616 26.9744 21.0863 28.4088 21.1513L28.4361 21.1528C29.6333 21.2336 30.8323 21.0286 31.9388 20.5543C32.551 20.2412 33.116 19.8393 33.6162 19.3609C33.6473 19.3311 33.6799 19.303 33.7138 19.2766C33.7462 19.2513 33.7947 19.2144 33.8513 19.1778C33.9111 19.1229 34.0035 19.037 34.1469 18.9027C34.2181 18.8359 34.4057 18.6181 34.703 18.231C34.9795 17.871 35.3002 17.432 35.6209 16.9843C35.9659 16.5026 36.3335 15.9782 36.6243 15.5632C36.6418 15.5382 36.659 15.5136 36.676 15.4895L34.6727 14.2641C34.2431 14.0013 34.0031 13.5038 34.0592 12.9928C34.1153 12.4817 34.4572 12.052 34.9329 11.8946L44.9518 8.57936C45.3152 8.45913 45.7118 8.5134 46.032 8.72717ZM39.1411 16.4468C39.0444 16.5799 38.8882 16.8031 38.6886 17.0885C38.4154 17.4789 38.061 17.9856 37.6663 18.5366C37.3391 18.9935 36.9989 19.4595 36.6965 19.8532C36.415 20.2198 36.1057 20.6045 35.8574 20.8371C35.6975 20.9869 35.5906 21.0863 35.5188 21.1519C35.4832 21.1844 35.4507 21.2138 35.4217 21.239C35.3997 21.258 35.351 21.3002 35.292 21.3423L35.2889 21.3446C35.2788 21.3518 35.2609 21.3647 35.2359 21.3808C34.5723 21.9961 33.8284 22.5138 33.0257 22.9192C33.0041 22.9301 32.9822 22.9404 32.96 22.95C31.484 23.591 29.8828 23.8696 28.2837 23.7639C28.2003 23.7601 28.1169 23.7558 28.0336 23.751C28.115 23.8013 28.1965 23.8513 28.2782 23.901C29.2989 24.4715 30.4119 24.8481 31.5635 25.0123L31.5827 25.0151C32.5951 25.1757 33.6306 25.0618 34.5865 24.6851C35.7418 24.1588 36.7962 23.4253 37.7001 22.5193C38.7078 21.4103 39.6243 20.2177 40.4402 18.9536C40.4556 18.9297 40.4718 18.9063 40.4887 18.8835C40.9092 18.3169 41.296 17.7249 41.647 17.1106C41.8206 16.8068 42.1061 16.588 42.4386 16.5038C42.7711 16.4196 43.1226 16.4771 43.4133 16.6633L44.8909 17.6095L44.2472 11.5601L38.3933 13.4971L39.1877 13.9831C39.5 14.1741 39.718 14.4936 39.7865 14.8609C39.8549 15.2281 39.7674 15.608 39.546 15.9045L39.1411 16.4468ZM34.5853 21.5829C34.6088 21.582 34.6387 21.5803 34.6713 21.5773C34.6382 21.5806 34.6092 21.5822 34.5853 21.5829ZM34.5519 18.9676C34.5446 18.9676 34.5363 18.9676 34.5272 18.9678C34.5657 18.9666 34.5814 18.9676 34.5519 18.9676Z" fill="#FF7B62"/>
</svg>
